<svg width="64" height="64" viewBox="0 0 64 64" fill="none" xmlns="http://www.w3.org/2000/svg">
<path d="M16.6672 45.9285L13.0832 46.7264C11.1833 47.1386 9.48276 48.191 8.26622 49.7074C7.04968 51.2237 6.39101 53.112 6.40049 55.056V56.7819C6.40213 57.9511 6.78701 59.0875 7.49618 60.017C8.20534 60.9466 9.19968 61.618 10.3269 61.9285C13.7882 62.8725 20.3578 64 32.0005 64C43.6432 64 50.2128 62.8725 53.6741 61.9285C54.8013 61.618 55.7956 60.9466 56.5048 60.017C57.214 59.0875 57.5989 57.9511 57.6005 56.7819V55.056C57.61 53.112 56.9513 51.2237 55.7348 49.7074C54.5182 48.191 52.8177 47.1386 50.9178 46.7264L47.3338 45.9285L42.4442 42.9963L40.4784 38.4096L41.1184 37.6725L41.5994 37.8016C42.1028 37.9347 42.6212 38.0025 43.1418 38.0032C44.7147 37.9998 46.2219 37.3725 47.3328 36.2591C48.4437 35.1456 49.0674 33.6369 49.0672 32.064V30.784C49.9807 30.5481 50.7904 30.0161 51.3694 29.2711C51.9484 28.5261 52.2641 27.6102 52.2672 26.6667V22.4C52.2636 21.4568 51.9477 20.5414 51.3687 19.7969C50.7897 19.0523 49.9804 18.5206 49.0672 18.2848V17.0667C49.0672 12.5403 47.2691 8.19933 44.0685 4.99871C40.8678 1.79809 36.5269 0 32.0005 0C27.4741 0 23.1332 1.79809 19.9325 4.99871C16.7319 8.19933 14.9338 12.5403 14.9338 17.0667V18.2848C14.0206 18.5206 13.2112 19.0523 12.6323 19.7969C12.0533 20.5414 11.7374 21.4568 11.7338 22.4V26.6667C11.7338 27.7983 12.1833 28.8835 12.9835 29.6837C13.7837 30.4838 14.8689 30.9333 16.0005 30.9333H18.1338C18.498 30.9298 18.8589 30.8634 19.2005 30.7371V31.1051C19.1999 32.6279 19.7526 34.0991 20.7557 35.2448L23.529 38.4075L21.5621 42.9941L16.6672 45.9285ZM22.0976 45.1595C24.0269 47.7016 26.6686 49.6127 29.6869 50.6496C28.6583 51.6568 27.8037 52.8275 27.1578 54.1141C23.8 52.5467 20.872 50.1889 18.6245 47.2427L22.0976 45.1595ZM55.4672 55.056V56.7819C55.4676 57.4843 55.2374 58.1674 54.8119 58.7262C54.3864 59.2851 53.7892 59.6887 53.112 59.8752C49.7765 60.7808 43.4064 61.8667 32.0005 61.8667C20.5946 61.8667 14.2245 60.7808 10.889 59.8699C10.2127 59.6836 9.61613 59.2808 9.19072 58.723C8.76531 58.1652 8.53456 57.4834 8.53382 56.7819V55.056C8.52651 53.5978 9.02063 52.1814 9.93335 51.0442C10.8461 49.907 12.122 49.1181 13.5472 48.8096L16.6128 48.128C17.8149 49.7419 21.4597 54.1717 26.6202 56.1963C27.0618 56.366 27.5512 56.3619 27.9899 56.185C28.4286 56.008 28.7838 55.6713 28.984 55.2427C29.6837 53.7621 30.7161 52.4633 32.0005 51.4475C33.2853 52.463 34.3183 53.7614 35.0192 55.2416C35.1703 55.5636 35.4099 55.836 35.71 56.0269C36.0102 56.2179 36.3584 56.3195 36.7141 56.32C36.9434 56.3203 37.1707 56.2772 37.384 56.1931C42.5434 54.1664 46.1882 49.7387 47.3904 48.1248L50.456 48.8064C51.8813 49.1154 53.1571 49.905 54.0695 51.0428C54.9818 52.1807 55.4753 53.5976 55.4672 55.056ZM36.8432 54.1141C36.1978 52.8272 35.3431 51.6564 34.3141 50.6496C37.3323 49.6127 39.9741 47.7016 41.9034 45.1595L45.3765 47.2427C43.1288 50.1887 40.2008 52.5465 36.8432 54.1141ZM45.4512 35.0773C44.6774 35.6665 43.706 35.934 42.7397 35.824L43.2453 35.2459C44.2483 34.0997 44.801 32.6282 44.8005 31.1051V30.7371C45.1421 30.8634 45.503 30.9298 45.8672 30.9333H46.9338V32.064C46.9359 32.6466 46.8032 33.2218 46.5459 33.7446C46.2887 34.2673 45.914 34.7235 45.4512 35.0773ZM42.6672 18.1173C32.8677 17.8229 30.8709 13.5019 30.8581 13.4709C30.7789 13.2728 30.6422 13.103 30.4656 12.9834C30.2889 12.8638 30.0805 12.7999 29.8672 12.8C26.7637 12.8049 23.7781 13.9892 21.5152 16.1131C22.4698 10.8192 27.0384 6.4 32.0005 6.4C34.8285 6.40311 37.5398 7.52791 39.5395 9.52763C41.5393 11.5273 42.6641 14.2386 42.6672 17.0667V18.1173ZM50.1338 22.4V26.6667C50.1338 27.2325 49.9091 27.7751 49.509 28.1752C49.1089 28.5752 48.5663 28.8 48.0005 28.8H45.8672C45.5843 28.8 45.313 28.6876 45.1129 28.4876C44.9129 28.2875 44.8005 28.0162 44.8005 27.7333V21.3333C44.8005 21.0504 44.9129 20.7791 45.1129 20.5791C45.313 20.379 45.5843 20.2667 45.8672 20.2667H48.0005C48.5663 20.2667 49.1089 20.4914 49.509 20.8915C49.9091 21.2916 50.1338 21.8342 50.1338 22.4ZM32.0005 2.13333C35.9598 2.13757 39.7557 3.71226 42.5553 6.51188C45.3549 9.31151 46.9296 13.1074 46.9338 17.0667V18.1333H45.8672C45.503 18.1369 45.1421 18.2033 44.8005 18.3296V17.0667C44.7968 13.673 43.4471 10.4194 41.0474 8.01975C38.6477 5.62008 35.3941 4.27034 32.0005 4.26667C25.1813 4.26667 19.2005 10.7467 19.2005 18.1333V18.3296C18.8589 18.2033 18.498 18.1369 18.1338 18.1333H17.0672V17.0667C17.0714 13.1074 18.6461 9.31151 21.4457 6.51188C24.2453 3.71226 28.0412 2.13757 32.0005 2.13333ZM18.1338 28.8H16.0005C15.4347 28.8 14.8921 28.5752 14.492 28.1752C14.0919 27.7751 13.8672 27.2325 13.8672 26.6667V22.4C13.8672 21.8342 14.0919 21.2916 14.492 20.8915C14.8921 20.4914 15.4347 20.2667 16.0005 20.2667H18.1338C18.4167 20.2667 18.688 20.379 18.8881 20.5791C19.0881 20.7791 19.2005 21.0504 19.2005 21.3333V27.7333C19.2005 28.0162 19.0881 28.2875 18.8881 28.4876C18.688 28.6876 18.4167 28.8 18.1338 28.8ZM21.3338 31.1051V19.52C22.233 18.2187 23.4105 17.1339 24.7809 16.344C26.1513 15.5542 27.6803 15.0793 29.257 14.9536C30.264 16.4779 33.5792 19.9829 42.6672 20.2432V31.1051C42.6673 32.1115 42.3019 33.0838 41.6389 33.8411L40.3909 35.2672L37.4042 34.4693L37.4362 34.3371C37.5015 34.0645 37.5124 33.7817 37.4683 33.5049C37.4242 33.2281 37.326 32.9627 37.1793 32.7238C37.0326 32.485 36.8402 32.2774 36.6133 32.113C36.3863 31.9485 36.1291 31.8304 35.8565 31.7653L32.745 31.0187C31.9192 30.8209 31.0487 30.9593 30.325 31.4034C29.6013 31.8475 29.0836 32.5609 28.8858 33.3867C28.6881 34.2124 28.8265 35.083 29.2706 35.8067C29.7146 36.5304 30.428 37.0481 31.2538 37.2459L34.3653 37.9925C34.5295 38.0319 34.6978 38.0519 34.8666 38.0523C35.3218 38.0525 35.7649 37.9059 36.13 37.6341C36.4952 37.3624 36.7629 36.9801 36.8933 36.544L38.8229 37.0603L37.2272 38.88C36.7731 39.3992 36.2133 39.8154 35.5852 40.1005C34.9571 40.3857 34.2753 40.5333 33.5856 40.5333H30.4154C29.7257 40.5329 29.044 40.3852 28.416 40.1001C27.788 39.8149 27.2281 39.399 26.7738 38.88L22.3642 33.84C21.7004 33.0835 21.3342 32.1115 21.3338 31.1051ZM35.3605 33.8411L34.8656 35.9147L31.753 35.168C31.6152 35.137 31.4848 35.079 31.3696 34.9972C31.2543 34.9154 31.1565 34.8116 31.0817 34.6917C31.0069 34.5718 30.9567 34.4382 30.934 34.2987C30.9113 34.1593 30.9165 34.0167 30.9494 33.8792C30.9822 33.7418 31.0421 33.6123 31.1254 33.4982C31.2088 33.3841 31.3139 33.2876 31.4349 33.2145C31.5558 33.1414 31.69 33.093 31.8298 33.0722C31.9696 33.0514 32.1121 33.0586 32.249 33.0933L35.3605 33.8411ZM25.1653 40.2848C25.8199 41.0333 26.6271 41.633 27.5326 42.0438C28.4381 42.4547 29.4211 42.667 30.4154 42.6667H33.5856C34.5799 42.667 35.5628 42.4546 36.4683 42.0437C37.3738 41.6329 38.181 41.0332 38.8357 40.2848L38.921 40.1877L40.3898 43.6171C38.3661 46.4082 35.3752 48.3453 32.0005 49.0507C28.6258 48.3453 25.6349 46.4082 23.6112 43.6171L25.081 40.1877L25.1653 40.2848Z" fill="#CAA64A"/>
</svg>
