<svg width="58" height="52" viewBox="0 0 58 52" fill="none" xmlns="http://www.w3.org/2000/svg">
<path d="M12.0859 5.1518C13.8135 3.82185 14.6773 3.15687 15.6744 2.72861C16.1264 2.53444 16.5965 2.37753 17.0789 2.25976C18.1429 2 19.2712 2 21.5277 2H35.8056C38.0621 2 39.1904 2 40.2544 2.25976C40.7369 2.37753 41.2069 2.53444 41.659 2.72861C42.656 3.15687 43.5198 3.82185 45.2474 5.1518C50.9718 9.55863 53.834 11.762 54.8152 14.6154C55.2516 15.8846 55.4147 17.2194 55.2955 18.5456C55.0273 21.5271 52.7678 24.2559 48.2488 29.7133L37.5995 42.5741C33.5002 47.5247 31.4505 50 28.6667 50C25.8828 50 23.8331 47.5247 19.7338 42.5741L9.08456 29.7133C4.56554 24.2559 2.30603 21.5271 2.03787 18.5456C1.91859 17.2194 2.0817 15.8846 2.51814 14.6154C3.49931 11.762 6.36152 9.55863 12.0859 5.1518Z" stroke="#CAA64A" stroke-width="4"/>
<path d="M23.3335 16.6665H34.0002" stroke="#CAA64A" stroke-width="4" stroke-linecap="round" stroke-linejoin="round"/>
</svg>
