<svg width="64" height="64" viewBox="0 0 64 64" fill="none" xmlns="http://www.w3.org/2000/svg">
<g clip-path="url(#clip0_4507_25737)">
<path d="M59.026 25.2138C60.1848 24.0842 60.594 22.4263 60.094 20.8872C59.5938 19.3481 58.2883 18.2474 56.6868 18.0148L42.6831 15.9799C42.4082 15.9401 42.1706 15.7675 42.0476 15.5182L35.785 2.82882C35.0688 1.37757 33.6186 0.476074 32.0002 0.476074C30.3818 0.476074 28.9316 1.37757 28.2155 2.82882L21.9528 15.5183C21.8297 15.7675 21.5922 15.9401 21.3172 15.9801L7.31371 18.0148C5.71221 18.2474 4.40684 19.3481 3.90659 20.8872C3.40634 22.4263 3.81559 24.0842 4.97459 25.2138L15.1077 35.0912C15.3066 35.2852 15.3975 35.5646 15.3505 35.8385L12.9583 49.7854C12.6848 51.3806 13.3281 52.9622 14.6373 53.9134C15.9466 54.8649 17.6501 54.9878 19.0823 54.235L31.6075 47.6501C31.8535 47.5207 32.1471 47.5207 32.3932 47.6501L44.9185 54.235C45.5415 54.5625 46.2156 54.7243 46.8865 54.7242C47.7577 54.7242 48.6235 54.4512 49.3631 53.9133C50.6723 52.962 51.3157 51.3802 51.0421 49.7853L48.65 35.8383C48.6031 35.5644 48.6938 35.2851 48.8927 35.0911L59.026 25.2138ZM45.3223 36.4093L47.7145 50.3566C47.7945 50.8233 47.5063 51.0895 47.3787 51.1821C47.251 51.2746 46.9087 51.4667 46.4897 51.2462L33.9645 44.6613C33.3496 44.3382 32.6751 44.1764 32.0005 44.1764C31.3258 44.1764 30.6512 44.3382 30.0365 44.6612L17.5113 51.2459C17.0921 51.4663 16.75 51.2744 16.6223 51.1818C16.4947 51.0892 16.2065 50.8231 16.2866 50.3563L18.6787 36.4093C18.9136 35.04 18.46 33.6435 17.4648 32.6736L7.33172 22.7962C6.99259 22.4655 7.06934 22.0808 7.11822 21.9308C7.16684 21.7807 7.33097 21.4243 7.79959 21.3563L21.803 19.3214C23.1778 19.1217 24.366 18.2587 24.981 17.0126L31.2436 4.32307C31.4532 3.89845 31.8427 3.85257 32.0006 3.85257C32.1582 3.85257 32.5477 3.89832 32.7575 4.32307V4.3232L39.0201 17.0127C39.635 18.2588 40.823 19.1218 42.1978 19.3216L56.2015 21.3564C56.6701 21.4244 56.8341 21.7808 56.8828 21.931C56.9316 22.0811 57.0085 22.4658 56.6692 22.7963L46.5361 32.6737C45.5411 33.6434 45.0875 35.04 45.3223 36.4093Z" fill="#CAA64A"/>
<path d="M51.7228 2.82836C50.9683 2.28036 49.9127 2.44761 49.3647 3.20186L47.5725 5.66836C47.0245 6.42261 47.1917 7.47849 47.946 8.02649C48.2459 8.24411 48.593 8.34899 48.937 8.34899C49.4592 8.34899 49.9739 8.10761 50.3042 7.65311L52.0963 5.18661C52.6443 4.43224 52.4772 3.37636 51.7228 2.82836Z" fill="#CAA64A"/>
<path d="M16.42 5.65793L14.6279 3.19143C14.08 2.43743 13.0242 2.27018 12.2697 2.81793C11.5155 3.36593 11.3482 4.4218 11.8962 5.17605L13.6884 7.64255C14.0187 8.09743 14.5335 8.33868 15.0557 8.33868C15.3999 8.33868 15.7471 8.2338 16.0466 8.01605C16.8009 7.46818 16.9681 6.4123 16.42 5.65793Z" fill="#CAA64A"/>
<path d="M6.19397 38.3535C5.90585 37.4669 4.95347 36.9815 4.0666 37.2696L1.16697 38.2119C0.2801 38.5 -0.205025 39.4526 0.0830998 40.3392C0.31485 41.0529 0.976725 41.5064 1.68835 41.5064C1.86122 41.5064 2.0371 41.4795 2.21047 41.4231L5.1101 40.4809C5.99685 40.1927 6.4821 39.2404 6.19397 38.3535Z" fill="#CAA64A"/>
<path d="M32.0008 57.0981C31.0684 57.0981 30.3125 57.854 30.3125 58.7864V61.8354C30.3125 62.7678 31.0684 63.5236 32.0008 63.5236C32.9331 63.5236 33.689 62.7678 33.689 61.8354V58.7864C33.689 57.8539 32.9333 57.0981 32.0008 57.0981Z" fill="#CAA64A"/>
<path d="M62.8337 38.2142L59.9341 37.272C59.0476 36.9841 58.0949 37.4691 57.8067 38.356C57.5186 39.2428 58.0037 40.1952 58.8906 40.4833L61.7902 41.4256C61.9636 41.4818 62.1394 41.5086 62.3122 41.5086C63.024 41.5086 63.6859 41.055 63.9176 40.3415C64.2057 39.4547 63.7205 38.5023 62.8337 38.2142Z" fill="#CAA64A"/>
</g>
<defs>
<clipPath id="clip0_4507_25737">
<rect width="64" height="64" fill="white"/>
</clipPath>
</defs>
</svg>
