<svg width="105" height="130" viewBox="0 0 105 130" fill="none" xmlns="http://www.w3.org/2000/svg">
<path d="M50.1164 47.656C50.1959 47.6617 50.2737 47.6631 50.3525 47.6661C50.3521 47.6504 50.3523 47.6374 50.3503 47.6226C50.2742 47.6372 50.1952 47.6472 50.1164 47.656Z" fill="#CAA64A"/>
<path d="M94.9076 52.2507L94.7718 52.2939L94.8727 52.2613C93.7233 48.7735 90.849 45.7916 87.2444 44.7844C85.4445 44.3022 83.5685 44.2501 81.7435 44.411C80.8277 44.4888 79.9211 44.6194 79.017 44.7506C78.5666 44.8146 78.1147 44.8795 77.6668 44.9141C77.2279 44.9376 76.7414 44.9937 76.4031 44.7606L76.3857 44.7867C76.1457 44.5269 76.1084 44.0915 76.0563 43.7114C76.0133 43.3138 75.9933 42.9122 75.9719 42.5115C75.9307 41.7079 75.8893 40.8991 75.8065 40.0954C75.6442 38.4902 75.3218 36.8785 74.688 35.3744C73.5454 32.74 71.4269 30.6169 68.9264 29.2736C68.5743 29.0857 68.2142 28.9103 67.85 28.7535L67.8201 28.8186L67.8759 28.6888C66.0381 27.887 63.9365 27.5274 61.9387 28.0126C59.9323 28.4659 58.2356 29.882 57.0896 31.5075C54.6261 34.7144 53.2511 38.6538 52.7391 42.6315C52.4187 45.2966 52.4655 47.9797 52.7272 50.6396C52.859 51.9685 53.0252 53.2945 53.2608 54.6071C53.9811 58.5426 55.106 62.3976 56.5799 66.1103C55.7352 66.6713 54.9085 67.2571 54.1031 67.8762L54.1204 67.8982L54.1189 67.8992C53.9828 67.6766 53.692 67.6128 53.4686 67.7461C53.245 67.8807 53.1725 68.1696 53.3168 68.3966C53.8275 69.2329 54.4206 69.8723 54.998 70.3573C55.4201 70.713 55.8188 70.9855 56.1654 71.1748L56.1649 71.1773L56.2029 71.1883C56.2015 71.1945 56.2007 71.1982 56.1999 71.202C56.7684 71.5195 57.1733 71.6513 57.2096 71.6697C57.4684 71.7486 57.7321 71.6098 57.8085 71.3622C57.8925 71.1162 57.7596 70.8434 57.5129 70.7684L57.5413 70.7812C57.9859 69.8536 58.3947 68.9104 58.7727 67.9539C62.5157 68.7219 66.3279 69.1572 70.1517 69.2251C73.9739 69.2823 77.8305 68.9628 81.5556 67.9905C85.2567 66.979 88.8298 65.257 91.6714 62.6358C93.0555 61.3322 94.44 59.8606 95.0313 57.9675C95.6613 56.1115 95.5242 54.065 94.9076 52.2507ZM67.7927 28.8842C67.8047 28.8946 67.8142 28.9046 67.8253 28.9135L67.7854 28.8995L67.7927 28.8842ZM58.7598 67.7987C58.7556 67.8004 58.7538 67.8026 58.7495 67.8042C57.8852 67.7956 57.0509 67.1632 56.8018 66.3218C56.8341 66.5425 56.9034 66.7492 56.9873 66.9369C57.0912 67.1577 57.2146 67.3671 57.3749 67.5508C57.6616 67.9537 58.053 68.2714 58.4206 68.6621C58.3062 68.6253 58.2039 68.5572 58.0948 68.5085C57.591 68.4892 57.1144 68.2869 56.6878 68.0226C56.2516 67.7133 55.8594 67.3042 55.6868 66.7909C56.0992 67.1315 56.4538 67.4685 56.8837 67.7296C57.0568 67.8548 57.2406 67.9668 57.4265 68.0753C57.3134 67.9737 57.1929 67.8873 57.0943 67.7667C56.779 67.3458 56.5592 66.7505 56.7751 66.2417C56.762 66.1945 56.7346 66.1533 56.727 66.1047C56.7284 66.0985 56.7304 66.0951 56.7318 66.0889L56.7109 66.0595C57.0297 66.4291 57.2965 66.7742 57.6595 67.0375C57.9941 67.335 58.3819 67.5503 58.7926 67.8098L58.7598 67.7987ZM68.1863 31.465C65.7366 30.6083 63.6305 31.4149 62.1276 32.7849C60.6397 34.1817 59.216 36.0576 58.3328 38.2957C57.4431 40.5219 56.904 42.9488 56.5489 45.4044C56.1518 47.8612 55.9883 50.3692 55.864 52.8885L55.5813 52.9006C55.2535 50.3877 55.1163 47.8489 55.1383 45.285C55.2194 42.7251 55.4844 40.1403 56.1832 37.5791C56.5317 36.2996 56.9778 35.0207 57.6064 33.7766C58.2485 32.542 59.1708 31.378 60.4078 30.5371C61.6396 29.708 63.1625 29.185 64.6659 29.3026C66.1504 29.3874 67.5948 30.1004 68.357 31.2393L68.1863 31.465ZM92.5197 51.8544C91.5114 50.6679 90.3922 49.9925 89.199 49.3516C88 48.7668 86.8185 48.0191 85.4437 47.6066C82.7092 46.7774 79.7103 46.6546 76.7231 46.8224L76.6868 46.6138C79.5933 45.8045 82.6982 45.4502 85.8226 45.9509C87.3631 46.2082 89.0244 46.5323 90.3525 47.5675C91.6344 48.5522 92.8099 50.0867 92.7201 51.7903L92.5197 51.8544Z" fill="#CAA64A"/>
<path d="M71.9329 19.9825C72.1081 18.0918 72.1438 16.1601 71.6983 14.2843C71.2269 12.4081 70.0125 10.7479 68.4148 9.68873L68.3358 9.80555L68.4101 9.68639C66.7367 8.52723 64.7005 7.94102 62.6764 7.79778C60.6457 7.65565 58.5753 7.93729 56.6584 8.67724C54.7517 9.47153 53.1175 10.775 51.7438 12.2568C51.0512 12.9971 50.4193 13.7872 49.8071 14.5828L48.8812 15.763C48.573 16.1226 48.2198 16.5687 47.8449 16.6571L47.8518 16.7263C47.4545 16.7264 47.1075 16.4379 46.7821 16.1933C46.4529 15.9309 46.1415 15.6463 45.8294 15.359C45.2082 14.7825 44.5884 14.1997 43.9432 13.6439C42.6552 12.5328 41.2555 11.521 39.6942 10.8006C38.1249 10.1046 36.4108 9.72453 34.6912 9.78485C32.9772 9.83729 31.2828 10.2639 29.7456 11.0065L29.7749 11.0689L29.6811 10.879C27.7826 11.7428 26.049 13.1196 24.9482 14.966C23.8315 16.8025 23.5663 19.1032 23.9286 21.1561C24.4848 25.3409 26.3939 29.2429 28.9586 32.5319C31.5618 35.8112 34.7606 38.549 38.1707 40.9059C41.5858 43.2692 45.2579 45.2395 49.0863 46.8233L49.0976 46.7958C48.8587 47.8193 48.6473 48.8476 48.4758 49.8846C48.3627 49.8597 48.2511 49.8756 48.1562 49.9225C48.1501 49.9264 48.1439 49.9251 48.1378 49.9289L48.1375 49.9302C48.0284 49.9883 47.9409 50.0902 47.9018 50.221C47.8923 50.2463 47.8966 50.2746 47.8933 50.3012C47.8787 50.4035 47.8903 50.5051 47.9373 50.5935C47.9819 50.675 48.0541 50.7377 48.1379 50.7834C48.168 50.8005 48.1943 50.8232 48.2283 50.8345C48.2382 50.8367 48.2765 50.8464 48.3271 50.8588C48.6102 50.934 49.4902 51.1206 50.6746 51.0418C50.6746 51.0418 50.6748 51.047 50.6755 51.0498L50.7208 51.0389C50.7738 51.0349 50.822 51.035 50.875 51.031C51.1185 51.0076 51.3732 50.9684 51.6352 50.9204C51.9503 52.7194 51.9399 54.5771 51.7278 56.375C51.3748 59.2244 50.4322 62.0004 49.1477 64.5595C46.4274 69.673 42.2107 73.8473 38.6675 78.4663C36.9111 80.7902 35.2538 83.2674 34.2839 86.0844C33.4341 88.4613 33.203 91.1174 33.7791 93.6027C33.6984 93.6619 33.6112 93.7092 33.533 93.7688C30.5759 96.0078 28.0039 98.9433 26.7538 102.486C26.116 104.241 25.8654 106.142 26.0855 107.995C26.297 109.85 26.982 111.626 27.9626 113.2C30.1369 116.185 32.244 119.226 33.4927 122.659C34.1288 124.348 34.5314 126.159 34.33 127.913C34.1587 129.673 33.0588 131.249 31.4777 132.061C29.9613 132.911 27.9053 132.783 26.5892 131.568C25.9432 130.986 25.4714 130.151 25.5124 129.263C25.5365 128.37 26.1206 127.572 26.8493 127.035L26.8087 126.977C26.0425 127.477 25.3692 128.266 25.2813 129.248C25.1774 130.22 25.6406 131.184 26.3371 131.839C27.7194 133.209 30.0162 133.474 31.733 132.542C33.4602 131.699 34.7393 129.924 34.9479 127.994C35.2011 126.069 34.7004 124.183 34.0424 122.451C33.3508 120.711 32.4244 119.092 31.4105 117.545C30.4146 115.988 29.1876 114.575 28.1715 113.067C26.0996 110.026 25.7781 105.994 27.1164 102.62C28.4204 99.2002 31.0288 96.4549 33.9315 94.3031C33.9409 94.296 33.9527 94.2895 33.9634 94.2827C34.0232 94.4847 34.0741 94.6861 34.146 94.8868C35.2505 97.6535 36.495 100.215 37.1811 103.043C37.52 104.436 37.7646 105.88 37.6071 107.292C37.5111 107.985 37.3297 108.705 36.8389 109.196C36.3683 109.714 35.4943 109.721 34.9746 109.204L34.9232 109.254C35.4138 109.832 36.4054 109.919 36.9891 109.361C37.58 108.841 37.8334 108.072 37.9518 107.342C38.1726 105.855 37.9702 104.367 37.6794 102.927C37.3773 101.483 36.946 100.077 36.4509 98.6946C35.9879 97.3086 35.2925 95.972 34.8372 94.6516C34.749 94.3887 34.6768 94.124 34.6064 93.8572C35.8805 92.984 37.2211 92.2049 38.6119 91.4706C40.2342 90.5892 41.8267 89.6478 43.3866 88.6471C46.508 86.6683 49.4499 84.2672 51.6653 81.2585C53.905 78.2761 55.3255 74.7765 56.1985 71.2075C56.1993 71.2038 56.2002 71.2 56.2015 71.1938L56.1636 71.1829L56.1328 71.1748C55.0341 74.6799 53.53 78.0856 51.2578 80.949C48.9989 83.823 46.0663 86.0634 42.9937 88.0334C41.4523 89.0211 39.8543 89.9223 38.2535 90.8241C36.9604 91.529 35.6788 92.3002 34.4464 93.15C33.9921 90.8867 34.1739 88.5091 34.9136 86.2955C35.8088 83.5755 37.3041 81.0588 38.9782 78.6947C40.653 76.3216 42.5161 74.0758 44.4012 71.8544C46.2548 69.6104 48.2036 67.4133 49.6641 64.8356C51.0615 62.231 51.96 59.3711 52.2678 56.431C52.4358 54.5791 52.3613 52.6689 51.9291 50.8573C52.1889 50.801 52.4543 50.7315 52.7279 50.6418C52.4663 47.9818 52.4197 45.2974 52.7398 42.6336C53.2533 38.6549 54.6269 34.7165 57.0903 31.5096C58.2351 29.8838 59.9318 28.4677 61.9395 28.0147C63.9372 27.5295 66.0388 27.8891 67.8766 28.691L67.8208 28.8207L67.8507 28.7556C68.2149 28.9124 68.575 29.0878 68.9271 29.2758C70.4744 26.3915 71.5853 23.2525 71.9329 19.9825ZM34.8543 31.6699C31.6732 29.5455 28.7931 26.5663 27.4644 22.5898C27.1296 21.6045 26.8932 20.5627 26.7922 19.4737C26.7094 18.3849 26.8828 17.2441 27.3389 16.2045C28.2123 14.1179 30.3438 12.4833 32.4625 12.5809L32.5719 12.842C31.0938 14.2474 30.361 15.634 30.0072 17.1573C29.6891 18.6427 29.3397 20.2881 29.6586 22.0227C29.9485 23.7406 30.6592 25.4349 31.6128 27.0014C32.5267 28.6061 33.7363 30.0568 35.0353 31.4504L34.8543 31.6699ZM51.9627 46.3708C51.9166 46.4206 51.8505 46.4426 51.8003 46.4875C51.6774 47.0415 51.1409 47.4149 50.6272 47.5835C50.5369 47.6093 50.4438 47.6058 50.3505 47.6217C50.3512 47.6362 50.3522 47.6495 50.3526 47.6652C50.5119 47.6754 50.6701 47.6906 50.8299 47.6866C51.3491 47.7184 51.8499 47.6447 52.3994 47.592C51.949 47.9231 51.3747 48.0354 50.8231 48.0381C50.3043 48.0102 49.7807 47.9032 49.3407 47.6229C49.2206 47.6005 49.0964 47.5967 48.9785 47.5643C49.5226 47.4531 50.0411 47.4171 50.5217 47.2451C50.7684 47.1833 50.9962 47.077 51.2149 46.9531C51.3987 46.8397 51.5784 46.7033 51.734 46.5342C51.0261 47.0953 49.9469 47.1398 49.2055 46.6424C49.2036 46.6393 49.2029 46.6366 49.2015 46.6311L49.1676 46.625L49.17 46.6202L49.1691 46.624C49.667 46.6525 50.1255 46.6997 50.5833 46.6438C51.0476 46.635 51.4766 46.5025 51.9627 46.3708ZM64.8836 11.0657C63.1382 10.9588 61.6912 11.2548 60.2344 11.7323C58.814 12.2334 57.2926 12.6551 55.9152 13.4769C54.5436 14.2844 53.2739 15.3097 52.2099 16.5259C51.1197 17.7248 50.2478 19.1395 49.7659 20.7362L49.556 20.6954C49.7149 18.9861 50.4277 17.3463 51.3639 15.8818C52.3386 14.4375 53.5631 13.1549 54.9598 12.0728C56.3529 11.0134 57.899 9.95112 59.742 9.66649C61.5228 9.36299 63.6113 9.62199 64.9619 10.8692L64.8836 11.0657Z" fill="#5E5E5E"/>
<path d="M67.7854 28.8999L67.8253 28.9139C67.813 28.9047 67.8034 28.8948 67.7926 28.8846L67.7854 28.8999Z" fill="#5E5E5E"/>
<path d="M56.7115 66.0617L56.7324 66.091C56.731 66.0972 56.729 66.1006 56.7276 66.1069C56.7352 66.1554 56.7626 66.1966 56.7757 66.2438C56.5598 66.7526 56.7793 67.3491 57.0949 67.7688C57.1938 67.8881 57.3139 67.9757 57.4271 68.0774C57.2412 67.9689 57.0571 67.8582 56.8843 67.7317C56.4544 67.4706 56.0995 67.1348 55.6874 66.793C55.86 67.3063 56.2522 67.7154 56.6884 68.0248C57.115 68.289 57.5916 68.4913 58.0954 68.5106C58.2045 68.5593 58.3068 68.6274 58.4211 68.6642C58.0523 68.2733 57.6622 67.9558 57.3755 67.5529C57.2152 67.3692 57.0918 67.1598 56.9879 66.939C56.9043 66.75 56.8347 66.5446 56.8024 66.3239C57.0515 67.1653 57.8848 67.7962 58.7501 67.8063C58.7543 67.8046 58.7561 67.8025 58.7604 67.8008L58.7926 67.8144C58.3819 67.5549 57.9944 67.3383 57.6595 67.0421C57.2971 66.7763 57.03 66.4324 56.7115 66.0617Z" fill="#5E5E5E"/>
</svg>
