<svg width="86" height="112" viewBox="0 0 86 112" fill="none" xmlns="http://www.w3.org/2000/svg">
<g clip-path="url(#clip0_4507_25788)">
<path d="M7.2168 21.9883L22.7339 40.8831" stroke="#93AAB5" stroke-width="3.64" stroke-miterlimit="10"/>
<path d="M38.4206 41.8064C40.9143 42.4594 43.7705 39.118 43.7296 37.1894C43.6624 34.25 37.5075 27.1871 29.7343 28.5158C34.1642 32.2003 34.5749 38.6019 38.4206 41.8064Z" fill="#A97C50"/>
<path d="M31.0227 28.375C34.0107 28.9662 37.0893 30.1731 38.9187 32.7038C39.8944 34.0584 40.8407 36.0081 41.1331 37.9327C41.0749 38.7374 40.9083 39.5453 40.6125 40.3431C40.4519 40.7702 40.4137 41.1831 40.4617 41.5599C39.7978 41.8616 39.0957 41.9834 38.4206 41.8068C34.5749 38.6022 34.1642 32.2006 29.7344 28.5161C30.1685 28.444 30.6 28.4018 31.0227 28.375Z" fill="#D0BFAB"/>
<path d="M14.288 44.2329C11.9728 45.3698 8.50544 42.6655 8.16573 40.7692C7.64249 37.8738 12.2671 29.7263 20.1507 29.4762C16.5463 33.9704 17.4229 40.3272 14.2929 44.2326L14.288 44.2329Z" fill="#A97C50"/>
<path d="M18.8609 29.598C16.0497 30.7721 13.2755 32.5709 11.9872 35.4143C11.3009 36.933 10.7623 39.0385 10.8583 40.9778C11.0793 41.7517 11.4031 42.513 11.8474 43.2355C12.0888 43.6226 12.2074 44.0188 12.2357 44.3971C12.9494 44.5609 13.6588 44.5374 14.2831 44.2337C17.413 40.3284 16.5365 33.9716 20.1409 29.4774C19.7023 29.4905 19.2712 29.5376 18.8511 29.5988L18.8609 29.598Z" fill="#D0BFAB"/>
<path d="M12.6205 45.8401C13.2391 51.9841 19.9772 53.5836 27.8253 52.7928C35.6684 52.0023 41.6514 49.1281 41.0324 42.9792C40.4138 36.8353 32.7046 24.0593 24.8565 24.8501C17.0134 25.6406 12.0019 39.6962 12.6205 45.8401Z" fill="#A97C50"/>
<path d="M24.5214 51.4153C32.3645 50.6248 38.3475 47.7506 37.7286 41.6018C37.2601 36.9336 32.6975 28.4472 27.0886 24.9795C34.1028 26.4398 40.4625 37.4198 41.0225 42.9803C41.6414 49.1291 35.6634 52.0029 27.8153 52.7938C22.9819 53.2796 18.5695 52.8594 15.7505 51.0303C18.2526 51.6629 21.2911 51.7414 24.5165 51.4157L24.5214 51.4153Z" fill="#DFCCB6"/>
<path d="M17.4521 13.7704C17.7197 16.4182 15.7879 18.7812 13.1409 19.0488C10.4939 19.3164 8.13142 17.3839 7.8638 14.7362C7.59618 12.0884 9.52801 9.72538 12.175 9.4578C14.822 9.19022 17.1845 11.1227 17.4521 13.7704Z" fill="#A97C50"/>
<path d="M15.0407 14.0159C15.1738 15.3299 14.2147 16.5035 12.901 16.6366C11.5873 16.7696 10.414 15.8102 10.281 14.4962C10.1479 13.1821 11.107 12.0085 12.4207 11.8755C13.7343 11.7424 14.9076 12.7018 15.0407 14.0159Z" fill="#603913"/>
<path d="M39.3886 11.5629C39.6562 14.2107 37.7244 16.5737 35.0774 16.8413C32.4304 17.1089 30.0679 15.1764 29.8003 12.5287C29.5327 9.8809 31.4645 7.51786 34.1115 7.25028C36.7585 6.9827 39.121 8.91516 39.3886 11.5629Z" fill="#A97C50"/>
<path d="M36.9719 11.8035C37.1049 13.1175 36.1458 14.2911 34.8322 14.4242C33.5185 14.5572 32.3452 13.5978 32.2121 12.2838C32.079 10.9697 33.0381 9.79611 34.3518 9.66306C35.6655 9.53 36.8388 10.4894 36.9719 11.8035Z" fill="#603913"/>
<path d="M10.2522 22.3532C10.9112 28.9041 17.8054 33.5747 25.6486 32.7843C33.4917 31.9938 39.3182 26.0436 38.6589 19.4877C37.9999 12.9368 31.1056 8.26614 23.2625 9.0566C15.4194 9.84706 9.59286 15.7973 10.2522 22.3532Z" fill="#A97C50"/>
<path d="M16.5642 28.0853C16.8733 31.1548 20.9429 33.2607 25.649 32.7893C30.3596 32.3127 33.9228 29.4421 33.6137 26.3725C33.3042 23.2981 29.235 21.1972 24.5289 21.6685C19.8183 22.1451 16.2551 25.0158 16.5646 28.0902L16.5642 28.0853Z" fill="#FAB38E"/>
<path d="M18.7266 20.5618C18.8066 21.366 19.5224 21.9546 20.3264 21.8746C21.1304 21.7946 21.7135 21.074 21.6335 20.2698C21.5535 19.4656 20.8376 18.877 20.0336 18.957C19.2296 19.037 18.6465 19.7576 18.7266 20.5618Z" fill="#283942"/>
<path d="M19.398 21.2821C20.6236 21.1606 21.2928 20.4682 21.4582 19.7098C21.5497 19.8759 21.6135 20.0687 21.6335 20.2698C21.7136 21.074 21.1304 21.7945 20.3264 21.8745C19.7971 21.929 19.3099 21.6889 19.013 21.2863C19.1365 21.2869 19.2604 21.2924 19.3976 21.2772L19.398 21.2821Z" fill="#16262F"/>
<path d="M19.2559 19.6528C19.2762 19.8588 19.4992 20.0002 19.7542 19.9761C20.0093 19.9521 20.1978 19.765 20.1774 19.5591C20.157 19.3531 19.934 19.2117 19.679 19.2358C19.424 19.2598 19.2355 19.4469 19.2559 19.6528Z" fill="white"/>
<path d="M27.2959 19.7024C27.3759 20.5066 28.0918 21.0952 28.8958 21.0152C29.6998 20.9352 30.2829 20.2146 30.2028 19.4104C30.1228 18.6062 29.407 18.0176 28.603 18.0976C27.799 18.1777 27.2159 18.8982 27.2959 19.7024Z" fill="#283942"/>
<path d="M27.962 20.4183C29.1877 20.2968 29.8569 19.6044 30.0226 18.8509C30.1145 19.0219 30.178 19.2098 30.198 19.4109C30.278 20.2151 29.6949 20.9356 28.8909 21.0157C28.3616 21.0702 27.8744 20.83 27.5775 20.4274C27.701 20.428 27.8249 20.4336 27.962 20.4183Z" fill="#16262F"/>
<path d="M27.8203 18.7886C27.8407 18.9945 28.0637 19.1359 28.3187 19.1119C28.5737 19.0878 28.7622 18.9008 28.7418 18.6948C28.7218 18.4937 28.4985 18.3474 28.2434 18.3715C27.9884 18.3956 27.7999 18.5826 27.8203 18.7886Z" fill="white"/>
<path d="M22.1591 27.1474C22.1591 27.1474 22.4876 27.4439 23.0533 27.6781C23.1998 27.7215 23.3443 27.8045 23.5143 27.8313C23.6846 27.863 23.8525 27.9294 24.0407 27.9351C24.2291 27.9457 24.4149 27.9861 24.6117 27.9763C24.8089 27.9714 25.0057 27.9616 25.2078 27.9563C25.4077 27.9216 25.6125 27.8864 25.8128 27.8566C26.0229 27.826 26.1753 27.7504 26.3548 27.7073C26.5298 27.6695 26.6848 27.564 26.8481 27.5023C27.0114 27.4407 27.1367 27.3325 27.2694 27.2583C27.7774 26.9189 28.0421 26.5631 28.0421 26.5631C28.0421 26.5631 28.0204 26.6685 27.94 26.8474C27.8918 26.9301 27.8459 27.0422 27.7701 27.1516C27.6891 27.2565 27.6106 27.3958 27.4858 27.5089C27.3605 27.6171 27.2439 27.774 27.0729 27.8659C26.9077 27.9672 26.7503 28.1075 26.5382 28.1777C26.3409 28.2468 26.1182 28.3722 25.913 28.4024C25.6987 28.4432 25.4845 28.484 25.2657 28.53C25.0386 28.5322 24.8165 28.534 24.5944 28.5359C24.3727 28.5426 24.1548 28.47 23.9452 28.4412C23.736 28.4174 23.5451 28.3082 23.3673 28.2425C23.18 28.1824 23.0375 28.0597 22.893 27.9767C22.7485 27.8936 22.6452 27.768 22.5404 27.6869C22.4397 27.5957 22.373 27.4969 22.3131 27.4224C22.1974 27.2631 22.1602 27.1621 22.1602 27.1621L22.1591 27.1474Z" fill="#603913"/>
<path d="M25.2385 28.2355L24.8872 24.7344" stroke="#603913" stroke-width="1.16" stroke-miterlimit="10"/>
<path d="M21.6352 22.3302C21.686 22.8105 23.9127 25.0397 24.8699 25.0272C25.8275 25.0197 27.5487 22.2179 27.4978 21.7376C27.447 21.2572 26.099 20.9976 24.4762 21.1588C22.8588 21.3245 21.584 21.8449 21.6303 22.3305L21.6352 22.3302Z" fill="#603913"/>
<path d="M23.8849 24.276C25.6644 24.0981 26.2938 22.4799 25.9512 21.1371C26.8399 21.1989 27.4639 21.4189 27.498 21.7424C27.5439 22.2232 25.8228 25.0249 24.8701 25.0321C24.5048 25.0348 23.9468 24.7061 23.401 24.2777C23.5551 24.2908 23.7183 24.2934 23.8849 24.276Z" fill="#CFADAE"/>
<g opacity="0.3" style="mix-blend-mode:soft-light">
<path d="M22.3273 22.2779C22.3621 22.6113 23.044 22.8121 23.8529 22.7317C24.6618 22.6513 25.2887 22.3178 25.2588 21.9841C25.2239 21.6507 24.5421 21.4499 23.7332 21.5303C22.9243 21.6107 22.2977 21.9491 22.3273 22.2779Z" fill="#FBC5BA"/>
</g>
<g opacity="0.4" style="mix-blend-mode:soft-light">
<path d="M13.6305 14.5757C13.665 14.9041 15.3864 13.4905 20.8635 11.4447C22.1798 10.9508 24.8821 10.4321 24.8472 10.0987C24.8123 9.76542 23.6272 9.43926 22.2531 9.75469C15.9643 11.1845 13.596 14.2472 13.6308 14.5806L13.6305 14.5757Z" fill="#FBC5BA"/>
</g>
<path d="M24.5715 29.8815C32.4146 29.091 38.2411 23.1408 37.5818 16.5849C37.5458 16.2368 37.4906 15.8951 37.421 15.5595C38.0888 16.7593 38.5187 18.0808 38.6588 19.4882C39.3178 26.0391 33.4965 31.9939 25.6485 32.7847C18.2221 33.5341 11.6483 29.3829 10.408 23.3794C12.8402 27.7571 18.4096 30.5014 24.5666 29.8818L24.5715 29.8815Z" fill="#DFCCB6"/>
<path d="M25.9179 33.3475C26.0662 34.7988 29.1539 35.7975 30.8254 35.6277C31.7223 35.5358 32.351 33.1173 31.4562 32.9077C32.2567 31.8596 31.2156 30.1591 30.7231 30.112C29.2913 29.9872 25.7693 31.8914 25.9176 33.3426L25.9179 33.3475Z" fill="#F04F4B"/>
<path d="M30.3494 35.0062C29.3727 35.2869 27.1851 34.9618 26.195 34.0084C27.0171 35.0929 29.419 35.7725 30.826 35.6325C31.7229 35.5405 32.3516 33.122 31.4568 32.9124C31.709 32.5872 31.7781 32.1917 31.7396 31.8093C31.4459 32.5032 30.9127 32.968 30.9127 32.968C30.9127 32.968 31.3264 34.7304 30.3494 35.0062Z" fill="#CFB7C3"/>
<path d="M26.4976 32.4445C26.4976 32.4445 29.1197 31.581 29.7459 31.2376C30.6856 30.7275 30.6384 30.2963 30.6384 30.2963C30.6384 30.2963 30.2497 30.1179 28.9366 30.7202C27.1457 31.5363 26.4927 32.4448 26.4927 32.4448L26.4976 32.4445Z" fill="#922B28"/>
<path d="M26.3193 33.4259C26.3245 33.4947 26.9069 33.4905 27.6127 33.4179C28.3234 33.3448 28.8929 33.233 28.8881 33.1691C28.8833 33.1053 28.3008 33.1094 27.5898 33.1775C26.8791 33.2505 26.3096 33.3624 26.3193 33.4259Z" fill="#C23F3C"/>
<path d="M26.2991 33.2251C26.3235 33.2875 26.7699 33.1799 27.3033 32.9819C27.8317 32.7841 28.2458 32.5753 28.2213 32.5129C28.1969 32.4505 27.7506 32.558 27.2172 32.7561C26.6887 32.9538 26.2747 33.1627 26.2991 33.2251Z" fill="#C23F3C"/>
<path d="M27.3802 32.294C27.3802 32.294 29.2815 31.8303 29.8092 31.6228C30.9218 31.1788 30.7911 30.4228 30.7911 30.4228C30.7911 30.4228 30.711 31.0019 29.7232 31.3971C29.0949 31.6467 27.3802 32.294 27.3802 32.294Z" fill="#F9C5DC"/>
<path d="M26.3389 33.622C26.3488 33.557 26.8093 33.5719 27.3693 33.6633C27.9289 33.7498 28.3729 33.8746 28.363 33.9396C28.353 34.0046 27.8926 33.9897 27.3329 33.9032C26.7733 33.8167 26.3293 33.6919 26.3392 33.6269L26.3389 33.622Z" fill="#C23F3C"/>
<path d="M25.9182 33.3472C26.0665 34.7985 23.2375 36.3938 21.566 36.5636C20.6691 36.6555 19.5674 34.4112 20.4026 34.0225C19.4093 33.1583 20.0883 31.2795 20.5668 31.1398C21.9437 30.7303 25.7748 31.8956 25.9182 33.3472Z" fill="#F04F4B"/>
<path d="M21.908 35.8562C22.9213 35.9334 24.9988 35.1848 25.778 34.0494C25.1883 35.2743 22.9729 36.4235 21.5659 36.5636C20.6689 36.6555 19.5672 34.4112 20.4024 34.0225C20.0905 33.7495 19.9443 33.38 19.9058 32.9976C20.3325 33.6177 20.9465 33.9669 20.9465 33.9669C20.9465 33.9669 20.8893 35.7744 21.9027 35.8516L21.908 35.8562Z" fill="#CFB7C3"/>
<path d="M25.1688 32.5785C25.1688 32.5785 22.4281 32.2553 21.7456 32.0446C20.7244 31.7309 20.6825 31.3042 20.6825 31.3042C20.6825 31.3042 21.0245 31.0563 22.4317 31.3806C24.3464 31.8201 25.1692 32.5834 25.1692 32.5834L25.1688 32.5785Z" fill="#922B28"/>
<path d="M25.5396 33.5041C25.5447 33.5729 24.9752 33.6847 24.2691 33.7525C23.5584 33.8255 22.9808 33.8293 22.9708 33.7609C22.966 33.697 23.5355 33.5852 24.2461 33.5121C24.9568 33.4391 25.5344 33.4353 25.5445 33.5037L25.5396 33.5041Z" fill="#C23F3C"/>
<path d="M25.5196 33.303C25.5097 33.368 25.0493 33.3531 24.4892 33.2617C23.9296 33.1752 23.4856 33.0503 23.4955 32.9854C23.5055 32.9204 23.9663 32.9402 24.526 33.0267C25.0856 33.1132 25.5296 33.238 25.5196 33.303Z" fill="#C23F3C"/>
<path d="M24.2773 32.6058C24.2773 32.6058 22.3211 32.535 21.7652 32.4334C20.5886 32.2203 20.5606 31.4517 20.5606 31.4517C20.5606 31.4517 20.7552 32.0052 21.8016 32.1936C22.4673 32.3116 24.2773 32.6058 24.2773 32.6058Z" fill="#F9C5DC"/>
<path d="M25.5592 33.7004C25.5348 33.638 25.0885 33.7455 24.5551 33.9436C24.0266 34.1413 23.6126 34.3502 23.637 34.4126C23.6614 34.475 24.1078 34.3674 24.6411 34.1694C25.1745 33.9713 25.5836 33.7628 25.5592 33.7004Z" fill="#C23F3C"/>
<path d="M24.9328 33.446C24.9769 33.9022 25.3872 34.237 25.8429 34.188C26.2989 34.144 26.6336 33.7335 26.5847 33.2777C26.5406 32.8216 26.1302 32.4868 25.6746 32.5357C25.2186 32.5798 24.8838 32.9902 24.9328 33.446Z" fill="#F04F4B"/>
<path d="M25.1188 32.8295C25.1092 32.8994 25.1049 32.9738 25.1104 33.0475C25.1545 33.5036 25.5648 33.8385 26.0205 33.7895C26.246 33.7676 26.4404 33.6592 26.5763 33.4959C26.5193 33.8558 26.2204 34.15 25.838 34.1885C25.382 34.2326 24.972 33.9027 24.9279 33.4465C24.9057 33.216 24.9783 32.9981 25.1138 32.8299L25.1188 32.8295Z" fill="#CFB7C3"/>
<path d="M25.3012 33.0233C25.2723 33.0996 25.6244 32.9201 25.9294 33.0355C26.2347 33.1559 26.3711 33.5261 26.4 33.4498C26.4288 33.3736 26.3376 32.8814 26.0375 32.7656C25.7371 32.6448 25.335 32.9467 25.3061 33.023L25.3012 33.0233Z" fill="#F9C5DC"/>
<path d="M62.8008 87.4858L64.1073 104.916" stroke="#667B81" stroke-width="1.46" stroke-miterlimit="10"/>
<path d="M72.1668 95.5482L54.7461 96.854" stroke="#667B81" stroke-width="1.46" stroke-miterlimit="10"/>
<path d="M66.2258 87.9155L60.6817 104.486" stroke="#667B81" stroke-width="1.46" stroke-miterlimit="10"/>
<path d="M71.7421 98.9737L55.1709 93.4277" stroke="#667B81" stroke-width="1.46" stroke-miterlimit="10"/>
<path d="M66.2258 87.9155L60.6817 104.486" stroke="#667B81" stroke-width="1.46" stroke-miterlimit="10"/>
<path d="M71.7421 98.9737L55.1709 93.4277" stroke="#667B81" stroke-width="1.46" stroke-miterlimit="10"/>
<path d="M69.2194 89.6334L57.6935 102.769" stroke="#667B81" stroke-width="1.46" stroke-miterlimit="10"/>
<path d="M70.0199 101.964L56.8921 90.4336" stroke="#667B81" stroke-width="1.46" stroke-miterlimit="10"/>
<path d="M71.3115 92.3809L55.6003 100.021" stroke="#667B81" stroke-width="1.46" stroke-miterlimit="10"/>
<path d="M67.2778 104.061L59.6343 88.3408" stroke="#667B81" stroke-width="1.46" stroke-miterlimit="10"/>
<path d="M64.2865 107.309C58.4272 107.748 53.3056 103.335 52.8662 97.474C52.4269 91.6131 56.8383 86.4853 62.6927 86.0465C68.5471 85.6076 73.6785 90.0201 74.1178 95.8811C74.5572 101.742 70.1458 106.87 64.2865 107.309ZM62.9085 88.9254C58.6356 89.2456 55.4141 92.9849 55.7349 97.2639C56.0556 101.543 59.7936 104.761 64.0714 104.44C68.3493 104.119 71.5658 100.38 71.2451 96.1013C70.9243 91.8223 67.1863 88.6047 62.9085 88.9254Z" fill="#364549"/>
<path d="M72.6838 95.9883C72.6838 95.9883 72.7008 96.2143 72.7302 96.6073C72.7376 96.7056 72.7457 96.8137 72.7549 96.9365C72.749 97.0555 72.7488 97.184 72.7447 97.3275C72.7358 97.6049 72.7349 97.9211 72.6666 98.2622C72.6398 98.4322 72.6134 98.6071 72.5877 98.7918C72.5421 98.9731 72.4968 99.1592 72.4465 99.3458C72.3668 99.7322 72.1931 100.116 72.0457 100.522C71.8471 100.903 71.6755 101.316 71.4172 101.691C71.1901 102.088 70.8956 102.441 70.6168 102.808C70.2959 103.138 69.9908 103.482 69.6317 103.766C69.2995 104.077 68.9167 104.309 68.5702 104.562C68.1906 104.768 67.8422 104.997 67.4672 105.134C67.2854 105.212 67.1081 105.284 66.9406 105.356C66.7618 105.409 66.5933 105.466 66.4289 105.513C66.1064 105.626 65.7943 105.679 65.5215 105.729C65.3851 105.754 65.2585 105.778 65.1413 105.797C65.0235 105.806 64.9105 105.814 64.8123 105.822C64.4144 105.852 64.1885 105.869 64.1885 105.869C64.1885 105.869 64.4126 105.827 64.8026 105.758C64.9001 105.741 65.0074 105.723 65.1245 105.705C65.2405 105.671 65.3615 105.637 65.4972 105.603C65.7632 105.528 66.0588 105.452 66.3703 105.325C66.529 105.268 66.6924 105.207 66.8606 105.145C67.0224 105.063 67.1891 104.982 67.3608 104.9C67.715 104.75 68.0423 104.503 68.4076 104.302C68.7393 104.05 69.1073 103.82 69.4203 103.515C69.76 103.238 70.0459 102.9 70.3525 102.576C70.6274 102.224 70.9186 101.891 71.1422 101.514C71.3971 101.159 71.5697 100.76 71.7695 100.395C71.913 100.003 72.1083 99.6429 72.2042 99.275C72.2597 99.093 72.3155 98.9159 72.3718 98.7437C72.408 98.5681 72.4446 98.3974 72.4766 98.232C72.5558 97.9049 72.5874 97.6012 72.6212 97.3269C72.6358 97.1924 72.6508 97.0629 72.6669 96.948C72.6678 96.8294 72.6696 96.7206 72.672 96.6216C72.6868 96.2252 72.6895 95.9978 72.6895 95.9978L72.6838 95.9883Z" fill="white"/>
<path d="M54.3004 97.3666C54.3004 97.3666 54.2835 97.1406 54.254 96.7476C54.2467 96.6493 54.2386 96.5412 54.2294 96.4184C54.2353 96.2994 54.2355 96.1709 54.2399 96.0323C54.2488 95.755 54.2498 95.4387 54.3181 95.0976C54.3448 94.9276 54.3712 94.7528 54.3969 94.568C54.4426 94.3868 54.4879 94.2006 54.5381 94.014C54.6178 93.6276 54.7915 93.2441 54.9389 92.8378C55.1376 92.4573 55.3091 92.0443 55.5675 91.6692C55.7945 91.2718 56.0891 90.9187 56.3678 90.552C56.6888 90.2216 56.9939 89.8776 57.3529 89.5938C57.6852 89.2824 58.0679 89.0511 58.4144 88.7979C58.7941 88.5916 59.1424 88.3629 59.5174 88.2261C59.6992 88.1483 59.8765 88.0757 60.044 88.0038C60.2228 87.9509 60.3914 87.8938 60.5558 87.8469C60.8782 87.7338 61.1903 87.6808 61.4632 87.6307C61.5996 87.6056 61.7262 87.5813 61.8433 87.5627C61.9612 87.5538 62.0742 87.5454 62.1724 87.538C62.5702 87.5082 62.7961 87.4912 62.7961 87.4912C62.7961 87.4912 62.572 87.5327 62.1821 87.6015C62.0846 87.6187 61.9773 87.6366 61.8601 87.6553C61.7441 87.6887 61.6232 87.7224 61.4875 87.7573C61.2214 87.8316 60.9259 87.9081 60.6144 88.0352C60.4556 88.0916 60.2923 88.1532 60.1241 88.2152C59.9622 88.2965 59.7955 88.3782 59.6238 88.4602C59.2696 88.6103 58.9424 88.8571 58.582 89.057C58.2502 89.3092 57.8822 89.5393 57.5693 89.8444C57.2295 90.1218 56.9437 90.4594 56.6371 90.7838C56.3621 91.1354 56.071 91.4684 55.8474 91.8458C55.5925 92.2009 55.4199 92.5992 55.2201 92.9649C55.0765 93.3561 54.8813 93.7166 54.7854 94.0844C54.7299 94.2664 54.674 94.4435 54.6178 94.6157C54.5816 94.7913 54.545 94.9621 54.5129 95.1275C54.4337 95.4546 54.4021 95.7583 54.3684 96.0325C54.3538 96.167 54.3339 96.297 54.3227 96.4114C54.3217 96.5301 54.32 96.6389 54.3175 96.7379C54.3028 97.1342 54.3001 97.3617 54.3001 97.3617L54.3004 97.3666Z" fill="white"/>
<path d="M33.1524 6.97144C32.6705 6.143 32.2351 5.4741 31.9085 5.00454C31.5868 4.53461 32.3165 5.57174 31.5868 4.53461L29.9223 5.39056C29.3953 5.80553 29.2399 6.49896 29.5736 6.99762C29.8241 7.37408 30.291 7.54163 30.7539 7.45753C30.4759 7.83408 30.4142 8.3278 30.6415 8.72575C30.8644 9.12898 31.3283 9.32147 31.7892 9.27704C31.4803 9.63614 31.4034 10.1261 31.5975 10.5413C31.8014 10.9558 32.2433 11.1846 32.7156 11.159C32.3904 11.4996 32.2784 11.9823 32.4487 12.4092C32.6338 12.835 33.0579 13.0898 33.5274 13.0941C33.1811 13.4165 33.0438 13.8912 33.1952 14.3294C33.3466 14.7676 33.7722 15.042 34.2341 15.0766C33.8716 15.3804 33.6992 15.8478 33.831 16.2875C33.9533 16.7329 34.3561 17.0337 34.8297 17.0921C34.4556 17.3721 34.2431 17.8326 34.3507 18.2791C34.468 18.7248 34.8334 19.0531 35.299 19.1368C34.8985 19.3941 34.6948 19.8392 34.7585 20.2938C34.8321 20.7478 35.1989 21.0958 35.6566 21.2047C35.2542 21.4374 34.9904 21.8722 35.0447 22.3325C35.1247 22.9391 35.6875 23.3959 36.3652 23.3451C35.6878 23.4009 35.2002 23.9463 35.2262 24.5569C35.2412 25.0202 35.5616 25.4062 36.0036 25.5707C35.5775 25.7509 35.267 26.1545 35.2619 26.6144C35.252 27.0746 35.5689 27.4806 35.9882 27.6715C35.5406 27.8286 35.2135 28.2088 35.1839 28.6705C35.1641 29.1314 35.4179 29.5521 35.8391 29.7676C35.3844 29.8955 35.0411 30.2572 34.9918 30.7203C34.9275 31.1797 35.1677 31.6162 35.5755 31.8524C35.1141 31.9561 34.7697 32.3031 34.6751 32.7548C34.5855 33.2062 34.8071 33.6589 35.1972 33.9211C34.7388 33.9999 34.3631 34.3245 34.2387 34.7736C34.1242 35.2218 34.3269 35.6859 34.7037 35.9689C34.2435 36.0231 33.8361 36.3204 33.6966 36.7656C33.562 37.2105 33.7356 37.6816 34.1041 37.985C33.6424 38.0196 33.2082 38.2893 33.0536 38.7307C32.8987 39.1672 33.0485 39.65 33.3984 39.9696C32.9296 39.9751 32.4845 40.2308 32.3092 40.6589C32.0705 41.2301 32.3789 41.9184 32.9918 42.1887L34.6725 42.9322C34.6725 42.9322 34.7939 42.6415 35.0076 42.1314C35.2163 41.6218 35.5377 40.9011 35.8408 40.0039C35.9951 39.5576 36.1867 39.0838 36.34 38.5585C36.4985 38.0377 38.1462 37.8796 38.3161 37.3136C38.4608 36.7395 39.0578 36.0723 39.2149 35.4677C39.3623 34.8638 39.4685 34.2383 39.5997 33.6158C40.0698 31.1252 39.3873 28.3455 39.3778 26.4393C39.3916 25.9639 39.3735 25.5256 39.3595 25.1413C39.3455 24.757 39.3398 24.4165 39.3192 24.1414C39.2775 23.5863 39.254 23.2719 39.254 23.2719C39.254 23.2719 38.1207 21.9241 37.8123 20.0501C37.5085 18.1708 36.9326 15.6944 36.0673 13.3088C35.2262 10.9165 34.1113 8.6287 33.1479 6.97672L33.1524 6.97144Z" fill="#94D9F8"/>
<path d="M44.414 2.7036C44.414 2.7036 38.7337 6.51849 31.1536 4.69059C31.1536 4.69059 44.2961 25.8384 36.026 38.9871C36.026 38.9871 51.3894 24.6644 44.414 2.7036Z" fill="#AA88BE"/>
<path d="M36.0111 38.7859C36.0111 38.7859 74.1744 34.4332 74.4001 16.9521C74.4001 16.9521 73.0437 29.0342 79.0965 33.6147C79.0965 33.6147 65.7122 36.5843 36.0111 38.7859Z" fill="#AA88BE"/>
<path d="M44.3992 2.50211C44.3992 2.50211 51.5524 21.3668 36.0112 38.7856C36.0112 38.7856 65.4589 27.9326 62.4669 5.93996C62.4669 5.93996 52.4865 8.13068 44.3996 2.50702L44.3992 2.50211Z" fill="#AA88BE"/>
<path d="M36.0109 38.7859C36.0109 38.7859 64.7212 28.3735 62.4667 5.94019C62.4667 5.94019 66.1221 15.3049 74.4003 16.9569C74.4003 16.9569 77.3387 33.2277 36.0113 38.7908L36.0109 38.7859Z" fill="#AA88BE"/>
<g style="mix-blend-mode:multiply" opacity="0.2">
<path d="M62.4665 5.93545C62.4665 5.93545 59.167 6.65705 54.831 6.20149C55.0791 6.41509 55.314 6.64944 55.5266 6.91511C56.7388 8.45952 57.1852 10.2639 57.0885 12.2028C56.8908 16.0217 55.1239 19.7952 52.9335 22.8594C51.7135 24.5713 50.32 26.1431 48.9427 27.7334C47.4832 29.4138 46.0079 31.0806 44.4632 32.6785C42.9735 34.218 41.4263 35.7173 39.7703 37.0814C39.7192 37.1248 39.6678 37.1632 39.6163 37.2017C47.3775 33.4729 64.8045 23.0911 62.4707 5.92526L62.4665 5.93545Z" fill="#AA88BE"/>
</g>
<g style="mix-blend-mode:multiply" opacity="0.2">
<path d="M74.3951 16.9526C71.5725 16.3934 69.2896 14.9293 67.5042 13.25C67.614 16.6259 67.2547 19.8048 65.2095 22.7643C62.5757 26.5682 58.8498 29.4412 54.8112 31.6361C50.2981 34.0888 45.4685 35.8786 40.6433 37.594C39.758 37.9074 38.8626 38.2166 37.9607 38.5065C77.24 32.7017 74.4 16.9522 74.4 16.9522L74.3951 16.9526Z" fill="#AA88BE"/>
</g>
<g opacity="0.2" style="mix-blend-mode:multiply">
<path d="M70.9924 31.0552C67.4853 33.8179 63.166 35.2977 58.9087 36.4863C58.4684 36.6083 58.0225 36.7207 57.5769 36.8381C72.2794 35.1136 79.0984 33.5748 79.0984 33.5748C76.8481 31.8859 75.6113 29.1577 74.9454 26.4014C74.0655 28.2361 72.5594 29.8212 70.9878 31.0605L70.9924 31.0552Z" fill="#AA88BE"/>
</g>
<path d="M74.3028 18.224C74.3553 17.805 74.3879 17.3827 74.3951 16.9523C74.3951 16.9523 74.3417 17.4257 74.3028 18.224Z" fill="#AA88BE"/>
<path d="M62.4664 5.93517C62.4664 5.93517 62.6457 6.61338 62.7321 7.83212C62.8034 9.04705 62.8223 10.8143 62.4647 12.8963C62.2757 13.9331 62.0389 15.0575 61.6559 16.2077C61.2779 17.3575 60.8347 18.5616 60.2318 19.7431C59.6595 20.9371 58.9678 22.1203 58.1848 23.2708C57.7776 23.8349 57.3916 24.4171 56.9384 24.96L56.284 25.7847L55.5878 26.5779C55.129 27.1113 54.623 27.6087 54.1264 28.1004C53.6408 28.6061 53.1069 29.0612 52.5983 29.5241C52.0958 30.0015 51.5438 30.4134 51.0176 30.8382C50.497 31.2725 49.9474 31.6496 49.4136 32.0404C49.1466 32.2333 48.884 32.421 48.6219 32.6135C48.3484 32.7872 48.0848 32.9601 47.8163 33.1334C47.2781 33.4652 46.7716 33.8243 46.2449 34.1108C45.7238 34.4068 45.2174 34.7016 44.7247 34.9806C44.2319 35.2596 43.7355 35.4895 43.2742 35.7267C42.8027 35.9596 42.3663 36.1998 41.9311 36.3905C41.496 36.5813 41.0798 36.7607 40.6926 36.933C40.3051 37.1003 39.9418 37.261 39.6023 37.4099C39.2617 37.5441 38.9449 37.6667 38.6617 37.7768C37.5239 38.2129 36.8748 38.4493 36.8748 38.4493C36.8748 38.4493 37.4874 38.1218 38.5726 37.576C38.8441 37.442 39.1439 37.2911 39.4676 37.1285C39.7852 36.9516 40.1316 36.7626 40.5014 36.557C41.2415 36.1508 42.0715 35.6933 42.9599 35.1574C43.8599 34.6453 44.7967 34.0316 45.7911 33.3939C46.2963 33.0843 46.7772 32.7123 47.284 32.3581C47.5375 32.181 47.7954 31.9987 48.0538 31.8212C48.3061 31.6294 48.5584 31.4375 48.8153 31.2404C49.8492 30.4713 50.856 29.6053 51.8607 28.7099C52.3496 28.2484 52.8698 27.8092 53.3313 27.3103C53.8086 26.8249 54.2911 26.3441 54.7311 25.822L55.4147 25.0594L56.0566 24.2653C56.4969 23.7481 56.8746 23.1862 57.2738 22.6474C57.6571 22.095 58.0155 21.5395 58.369 20.9844C58.7018 20.416 59.0458 19.8666 59.3287 19.292C59.9308 18.165 60.4237 17.0312 60.8402 15.9329C61.2567 14.8346 61.5617 13.7643 61.8133 12.7722C62.0494 11.7714 62.2118 10.8403 62.3275 10.0115C62.4329 9.17857 62.482 8.44866 62.5009 7.84451C62.51 7.2411 62.509 6.7669 62.4945 6.44192C62.48 6.11694 62.4573 5.94573 62.4573 5.94573L62.4664 5.93517Z" fill="#855AA5"/>
<path d="M36.8747 38.4445C36.8747 38.4445 37.584 38.2876 38.8303 38.046C39.4531 37.9202 40.2145 37.799 41.0735 37.5962C41.9336 37.4082 42.9055 37.1971 43.9652 36.9694C45.0177 36.7127 46.1643 36.4588 47.3714 36.1558C48.5728 35.8435 49.8378 35.5214 51.1327 35.1378C52.4399 34.7878 53.7539 34.3287 55.1044 33.8965C55.7682 33.659 56.4418 33.4207 57.115 33.1776C57.7766 32.9106 58.4431 32.6433 59.1095 32.376C59.7647 32.0897 60.4195 31.7985 61.0747 31.5123C61.713 31.1977 62.3516 30.888 62.9793 30.5643C64.2075 29.8843 65.4266 29.2149 66.5145 28.4417C67.6239 27.6916 68.6303 26.8849 69.5264 26.057C70.4326 25.2331 71.1868 24.3565 71.8348 23.5125C73.1246 21.8102 73.8233 20.1275 74.1173 18.9099C74.4207 17.6867 74.3753 16.949 74.3753 16.949C74.3753 16.949 74.4086 17.1293 74.4242 17.469C74.4348 17.8091 74.4433 18.3173 74.3378 18.9527C74.2373 19.5876 74.0575 20.3521 73.7453 21.1956C73.4381 22.0387 72.994 22.9662 72.3765 23.8869C71.7643 24.8122 71.0315 25.7762 70.1254 26.6691C69.2299 27.5712 68.2253 28.4666 67.0947 29.2628C65.981 30.0873 64.7677 30.8353 63.5017 31.5379C62.8604 31.8774 62.2078 32.1981 61.5559 32.5285C60.8916 32.8253 60.2228 33.1274 59.554 33.4295C58.8728 33.698 58.1912 33.9615 57.51 34.2299C56.8216 34.4693 56.1379 34.7033 55.4544 34.9423C54.0843 35.376 52.727 35.784 51.3982 36.1109C50.0773 36.4767 48.7823 36.7269 47.5575 36.9916C46.3323 37.2514 45.1602 37.4282 44.0878 37.6173C43.009 37.7871 42.0153 37.906 41.135 38.0214C40.2553 38.1467 39.4888 38.1992 38.8571 38.2712C37.5921 38.3957 36.8702 38.4498 36.8702 38.4498L36.8747 38.4445Z" fill="#855AA5"/>
<g opacity="0.2" style="mix-blend-mode:multiply">
<path d="M44.4144 2.70389C44.4144 2.70389 41.9737 4.33932 38.1576 4.95637C40.5654 5.91217 41.9247 8.16685 42.327 10.7008C42.664 12.8246 42.789 15.0186 42.871 17.1665C42.9529 19.3143 42.9469 21.4737 42.7323 23.6191C42.3418 27.5019 41.33 31.5301 39.2655 34.8911C38.5038 36.129 37.5967 37.2048 36.5422 38.0941C36.3773 38.3979 36.2071 38.6972 36.0215 38.9878C36.0215 38.9878 51.3848 24.6651 44.4095 2.70426L44.4144 2.70389Z" fill="#AA88BE"/>
</g>
<path d="M44.399 2.50234C44.399 2.50234 44.6669 3.04546 45.028 4.04106C45.389 5.03665 45.8289 6.49073 46.1904 8.2817C46.3613 9.17792 46.5332 10.1531 46.6362 11.1977C46.7535 12.2363 46.8315 13.342 46.8383 14.4877C46.8417 15.0605 46.841 15.6435 46.8161 16.2333C46.8059 16.822 46.7567 17.4185 46.7031 18.0203C46.6494 18.6221 46.561 19.2216 46.4877 19.8249C46.3796 20.4258 46.3017 21.0344 46.1688 21.6322C46.0358 22.2301 45.913 22.8322 45.7445 23.4179L45.5044 24.3004C45.4125 24.5889 45.3205 24.8774 45.2285 25.1659C45.1362 25.4495 45.0491 25.7376 44.947 26.022C44.8395 26.3017 44.7317 26.5766 44.6239 26.8515C44.4185 27.4054 44.1817 27.9369 43.9442 28.4586C43.717 28.9845 43.4686 29.4923 43.2085 29.9761C43.0784 30.2181 42.9533 30.4597 42.8331 30.7009C42.6974 30.9334 42.5614 31.1609 42.4302 31.3881C41.9212 32.3057 41.3447 33.1147 40.8382 33.869C40.28 34.5926 39.8031 35.2805 39.3109 35.8312C38.8244 36.3913 38.4223 36.8908 38.045 37.26C37.3013 38.0123 36.8792 38.4441 36.8792 38.4441C36.8792 38.4441 37.2383 37.9627 37.8711 37.1149C38.2009 36.7048 38.5352 36.1561 38.9651 35.5656C39.1798 35.2679 39.3927 34.9457 39.6034 34.5939C39.8247 34.2513 40.0543 33.8882 40.2926 33.5097C40.7278 32.7261 41.2337 31.8978 41.6835 30.9797C41.7999 30.7536 41.9208 30.5222 42.0369 30.2912C42.1423 30.0511 42.2527 29.8106 42.3628 29.5653C42.5828 29.0745 42.8225 28.5822 43.0207 28.0635C43.229 27.5489 43.4465 27.0237 43.6232 26.4818C43.815 25.9438 44.0061 25.3959 44.1666 24.8355C44.2494 24.5576 44.3369 24.2743 44.4247 23.996L44.6469 23.1395C44.8067 22.5693 44.9162 21.988 45.0409 21.4105C45.1753 20.8323 45.2546 20.2434 45.3695 19.6666C45.4492 19.0826 45.5387 18.4979 45.5991 17.9203C45.7147 16.7605 45.8113 15.612 45.8312 14.494C45.8515 13.3809 45.8445 12.2995 45.7876 11.2761C45.7356 10.2524 45.6385 9.28645 45.5469 8.39416C45.1167 4.8298 44.4042 2.50688 44.4042 2.50688L44.399 2.50234Z" fill="#855AA5"/>
<path d="M79.284 35.9226L77.4289 51.1693C76.2364 57.202 75.3043 58.67 70.7564 59.0109L17.5905 62.9961C13.0425 63.337 12.5352 61.5767 10.8402 56.1607L6.49219 41.3789L78.3312 35.994" fill="#F497B4"/>
<path d="M78.7405 40.3998L79.284 35.9226L6.49219 41.3789L7.77078 45.7195L78.7405 40.3998Z" fill="#D1D3D4"/>
<g opacity="0.4" style="mix-blend-mode:multiply">
<path d="M75.4032 53.4653C71.8736 54.6093 68.213 55.3233 64.544 55.8602C61.2121 56.3471 57.8586 56.6775 54.5148 57.0714C49.1685 57.6994 43.8312 57.5907 38.4598 57.687C32.0478 57.802 21.2157 58.9104 19.8775 50.2168C19.3287 46.6515 20.5659 42.5323 23.3609 40.154C23.3794 40.1378 23.3983 40.1265 23.4169 40.1103L6.49219 41.3789L10.8402 56.1607C12.5352 61.5767 13.0425 63.337 17.5905 62.9961L70.7564 59.0109C74.8377 58.705 76.0062 57.491 77.0682 52.881C76.5156 53.0855 75.9576 53.2854 75.4032 53.4653Z" fill="#F497B4"/>
</g>
<path d="M77.8538 32.7199C79.1603 32.622 80.2957 33.604 80.3933 34.9059L80.5322 36.758C80.6301 38.0648 79.6488 39.2055 78.3473 39.3031L7.92276 44.582C6.61633 44.6799 5.47593 43.6982 5.37797 42.3914L5.23914 40.5393C5.14119 39.2325 6.11796 38.0971 7.4293 37.9988C7.4293 37.9988 40.2662 40.2061 77.8587 32.7196L77.8538 32.7199Z" fill="#F27AA5"/>
<path d="M62.8295 59.6051L32.2217 61.8994L32.4364 64.7636L63.0442 62.4693L62.8295 59.6051Z" fill="#7D9AAA"/>
<g opacity="0.2" style="mix-blend-mode:multiply">
<path d="M62.9369 61.0397L32.3291 63.334L32.4366 64.7685L63.0445 62.4742L62.9369 61.0397Z" fill="#86898B"/>
</g>
<path d="M63.0505 96.0933L2.42822 24.6543C14.8362 39.4297 50.5305 81.9982 63.0259 96.0952L63.0505 96.0933Z" fill="#7D9AAA" stroke="#93AAB5" stroke-width="3.64" stroke-miterlimit="10"/>
<path d="M35.6211 89.5234L36.9277 106.954" stroke="#667B81" stroke-width="1.46" stroke-miterlimit="10"/>
<path d="M44.9822 97.5863L27.5615 98.8921" stroke="#667B81" stroke-width="1.46" stroke-miterlimit="10"/>
<path d="M39.0466 89.9531L33.5025 106.524" stroke="#667B81" stroke-width="1.46" stroke-miterlimit="10"/>
<path d="M44.5575 101.012L27.9863 95.4658" stroke="#667B81" stroke-width="1.46" stroke-miterlimit="10"/>
<path d="M39.0466 89.9531L33.5025 106.524" stroke="#667B81" stroke-width="1.46" stroke-miterlimit="10"/>
<path d="M44.5575 101.012L27.9863 95.4658" stroke="#667B81" stroke-width="1.46" stroke-miterlimit="10"/>
<path d="M42.0348 91.6715L30.509 104.807" stroke="#667B81" stroke-width="1.46" stroke-miterlimit="10"/>
<path d="M42.8353 104.002L29.7075 92.4717" stroke="#667B81" stroke-width="1.46" stroke-miterlimit="10"/>
<path d="M44.127 94.419L28.4158 102.059" stroke="#667B81" stroke-width="1.46" stroke-miterlimit="10"/>
<path d="M40.0932 106.099L32.4497 90.3789" stroke="#667B81" stroke-width="1.46" stroke-miterlimit="10"/>
<path d="M37.1068 109.347C31.2475 109.786 26.121 105.373 25.6817 99.5121C25.2423 93.6512 29.6537 88.5234 35.513 88.0842C41.3723 87.645 46.4989 92.0578 46.9382 97.9188C47.3775 103.78 42.9661 108.908 37.1068 109.347ZM35.7288 90.9631C31.4559 91.2834 28.2345 95.0226 28.5552 99.3017C28.876 103.581 32.6139 106.798 36.8918 106.478C41.1696 106.157 44.3861 102.418 44.0654 98.1391C43.7446 93.86 40.0067 90.6424 35.7288 90.9631Z" fill="#364549"/>
<path d="M45.4993 98.0265C45.4993 98.0265 45.5162 98.2525 45.5457 98.6455C45.553 98.7438 45.5611 98.8519 45.5704 98.9747C45.5645 99.0937 45.5642 99.2222 45.5602 99.3657C45.5513 99.6431 45.5503 99.9593 45.482 100.3C45.4553 100.47 45.4289 100.645 45.3983 100.83C45.3526 101.012 45.3073 101.198 45.2571 101.384C45.1774 101.771 45.0036 102.154 44.8563 102.561C44.6576 102.941 44.4861 103.354 44.2277 103.729C44.0007 104.127 43.7061 104.48 43.4274 104.846C43.1064 105.177 42.8013 105.521 42.4423 105.805C42.11 106.116 41.7273 106.347 41.3808 106.601C41.0011 106.807 40.6528 107.035 40.2778 107.172C40.096 107.25 39.9186 107.323 39.7512 107.395C39.5724 107.447 39.4038 107.505 39.2394 107.551C38.917 107.665 38.6048 107.718 38.332 107.768C38.1956 107.793 38.069 107.817 37.9519 107.836C37.834 107.845 37.721 107.853 37.6228 107.86C37.225 107.89 36.9991 107.907 36.9991 107.907C36.9991 107.907 37.2231 107.866 37.6131 107.797C37.7106 107.78 37.8179 107.762 37.9351 107.743C38.0511 107.71 38.172 107.676 38.3077 107.641C38.5738 107.567 38.8693 107.49 39.1808 107.363C39.3396 107.307 39.5029 107.245 39.6711 107.183C39.833 107.102 39.9997 107.02 40.1713 106.938C40.5256 106.788 40.8528 106.541 41.2132 106.341C41.545 106.089 41.9129 105.859 42.2259 105.554C42.5657 105.277 42.8515 104.939 43.1581 104.615C43.4331 104.263 43.7242 103.93 43.9478 103.553C44.2027 103.197 44.3753 102.799 44.5751 102.433C44.7187 102.042 44.9139 101.682 45.0098 101.314C45.0653 101.132 45.1212 100.955 45.177 100.778C45.2133 100.602 45.2499 100.431 45.2819 100.266C45.3611 99.9389 45.3927 99.6352 45.4264 99.3609C45.4411 99.2265 45.461 99.0965 45.4721 98.9821C45.4731 98.8634 45.4748 98.7546 45.4773 98.6556C45.492 98.2593 45.4947 98.0318 45.4947 98.0318L45.4993 98.0265Z" fill="white"/>
<path d="M27.1208 99.4042C27.1208 99.4042 27.1038 99.1782 27.0744 98.7852C27.067 98.6869 27.0589 98.5788 27.0497 98.456C27.0556 98.337 27.0558 98.2085 27.0603 98.0699C27.0691 97.7926 27.0701 97.4763 27.1384 97.1352C27.1651 96.9652 27.1915 96.7904 27.2221 96.6053C27.2678 96.424 27.3131 96.2378 27.3633 96.0512C27.443 95.6649 27.6168 95.2813 27.7641 94.875C27.9628 94.4945 28.1343 94.0815 28.3927 93.7064C28.6197 93.309 28.9143 92.9559 29.193 92.5892C29.514 92.2588 29.8191 91.9149 30.1781 91.631C30.5104 91.3196 30.8931 91.0883 31.2396 90.8351C31.6193 90.6288 31.9676 90.4001 32.3426 90.2633C32.5245 90.1855 32.7018 90.1129 32.8692 90.0411C33.048 89.9881 33.2166 89.931 33.381 89.8841C33.7035 89.771 34.0156 89.718 34.2884 89.6679C34.4248 89.6429 34.5514 89.6186 34.6685 89.5999C34.7864 89.5911 34.8994 89.5826 34.9976 89.5752C35.3954 89.5454 35.6214 89.5285 35.6214 89.5285C35.6214 89.5285 35.3973 89.57 35.0073 89.6387C34.9098 89.6559 34.8025 89.6738 34.6854 89.6925C34.5693 89.7259 34.4484 89.7597 34.3127 89.7945C34.0466 89.8688 33.7511 89.9453 33.4396 90.0724C33.2808 90.1288 33.1175 90.1904 32.9493 90.2525C32.7875 90.3337 32.6207 90.4154 32.4491 90.4974C32.0948 90.6475 31.7676 90.8944 31.4072 91.0943C31.0755 91.3464 30.7075 91.5765 30.3945 91.8816C30.0547 92.159 29.7689 92.4966 29.4623 92.821C29.1874 93.1726 28.8962 93.5057 28.6726 93.8831C28.4177 94.2381 28.2451 94.6364 28.0453 95.0022C27.9018 95.3933 27.7065 95.7538 27.611 96.1265C27.5555 96.3086 27.4996 96.4857 27.4434 96.6578C27.4071 96.8335 27.3706 97.0042 27.3385 97.1696C27.2593 97.4967 27.2277 97.8004 27.194 98.0747C27.1794 98.2092 27.1595 98.3391 27.1483 98.4536C27.1473 98.5722 27.1456 98.681 27.1431 98.78C27.1333 99.176 27.1257 99.4038 27.1257 99.4038L27.1208 99.4042Z" fill="white"/>
<path d="M36.2688 98.1005L61.3605 61.1578C52.8666 73.4291 44.5827 85.734 36.2639 98.1009L36.2688 98.1005Z" fill="#7D9AAA" stroke="#93AAB5" stroke-width="3.64" stroke-miterlimit="10"/>
<path d="M38.9129 98.5203C39.0208 99.9598 37.9391 101.212 36.5001 101.32C35.0611 101.427 33.8094 100.345 33.7019 98.9109C33.5944 97.4764 34.6753 96.2146 36.1094 96.1071C37.5435 95.9996 38.8046 97.076 38.9129 98.5203Z" fill="#7D9AAA"/>
<path d="M37.4444 98.6306C37.4915 99.2594 37.0191 99.8086 36.3904 99.8557C35.7617 99.9029 35.2126 99.4302 35.1655 98.8014C35.1184 98.1726 35.5909 97.6233 36.2195 97.5762C36.8482 97.5291 37.3973 98.0017 37.4444 98.6306Z" fill="#A2C7D9"/>
<path d="M66.0975 96.4822C66.2054 97.9217 65.1286 99.1733 63.6896 99.2811C62.2505 99.389 60.994 98.3074 60.8865 96.8728C60.7789 95.4383 61.8598 94.1765 63.2989 94.0687C64.7379 93.9608 65.9892 95.0379 66.0975 96.4822Z" fill="#7D9AAA"/>
<path d="M64.629 96.5925C64.6761 97.2213 64.2036 97.7705 63.575 97.8177C62.9463 97.8648 62.3972 97.3921 62.3501 96.7633C62.3029 96.1345 62.7754 95.5852 63.4041 95.5381C64.0328 95.491 64.5818 95.9636 64.629 96.5925Z" fill="#A2C7D9"/>
<path d="M36.0865 63.0526C36.1274 63.5979 35.7182 64.0683 35.1779 64.1088C34.6377 64.1493 34.1625 63.7402 34.122 63.1998C34.0815 62.6594 34.4904 62.1842 35.0306 62.1437C35.5709 62.1032 36.046 62.5122 36.0865 63.0526Z" fill="#607885"/>
<path d="M35.5317 63.0939C35.5493 63.3298 35.3725 63.5406 35.1368 63.5583C34.901 63.576 34.6902 63.3991 34.6722 63.1584C34.6541 62.9176 34.8317 62.7166 35.0723 62.6986C35.313 62.6805 35.514 62.8581 35.5317 63.0939Z" fill="#A2C7D9"/>
<path d="M61.8517 61.1209C61.8926 61.6663 61.4833 62.1366 60.9431 62.1771C60.4028 62.2176 59.9276 61.8086 59.8871 61.2682C59.8466 60.7278 60.2555 60.2525 60.7958 60.212C61.336 60.1715 61.8112 60.5805 61.8517 61.1209Z" fill="#607885"/>
<path d="M61.2968 61.1623C61.3145 61.3981 61.1377 61.609 60.9019 61.6267C60.6662 61.6443 60.4554 61.4675 60.4373 61.2267C60.4193 60.986 60.5968 60.785 60.8375 60.7669C61.0781 60.7489 61.2791 60.9265 61.2968 61.1623Z" fill="#A2C7D9"/>
<path d="M2.89451 25.0736L8.17743 19.7125L8.44887 21.5547L3.20818 27.1497L2.89451 25.0736Z" fill="#8AA1AB"/>
<path d="M8.17744 19.7126L6.19336 19.7971L1.43105 24.9215L2.89452 25.0736L8.17744 19.7126Z" fill="#8FBBC3"/>
<path d="M1.43115 24.9214L2.89462 25.0735L3.20829 27.1497L1.91575 26.7081L1.43115 24.9214Z" fill="#7D929B"/>
</g>
<defs>
<clipPath id="clip0_4507_25788">
<rect width="78" height="106" fill="white" transform="translate(0 5.83057) rotate(-4.28677)"/>
</clipPath>
</defs>
</svg>
