<svg width="20" height="20" viewBox="0 0 20 20" fill="none" xmlns="http://www.w3.org/2000/svg">
<path d="M16.25 14.5833C16.25 15.7339 15.3173 16.6667 14.1667 16.6667C13.0161 16.6667 12.0833 15.7339 12.0833 14.5833C12.0833 13.4327 13.0161 12.5 14.1667 12.5C15.3173 12.5 16.25 13.4327 16.25 14.5833Z" stroke="#CAA64A" stroke-width="1.25"/>
<path d="M7.91667 14.5833C7.91667 15.7339 6.98393 16.6667 5.83333 16.6667C4.68274 16.6667 3.75 15.7339 3.75 14.5833C3.75 13.4327 4.68274 12.5 5.83333 12.5C6.98393 12.5 7.91667 13.4327 7.91667 14.5833Z" stroke="#CAA64A" stroke-width="1.25"/>
<path d="M12.0833 14.5833H7.91667M16.25 14.5833H16.886C17.0693 14.5833 17.1609 14.5833 17.238 14.5737C17.8057 14.503 18.253 14.0557 18.3237 13.4879C18.3333 13.4109 18.3333 13.3193 18.3333 13.136V10.8333C18.3333 7.84179 15.9082 5.41667 12.9167 5.41667M12.5 12.9167V5.83333C12.5 4.65482 12.5 4.06557 12.1339 3.69945C11.7678 3.33333 11.1785 3.33333 10 3.33333H4.16667C2.98816 3.33333 2.3989 3.33333 2.03279 3.69945C1.66667 4.06557 1.66667 4.65482 1.66667 5.83333V12.5C1.66667 13.2788 1.66667 13.6683 1.83414 13.9583C1.94385 14.1484 2.10165 14.3062 2.29167 14.4159C2.58174 14.5833 2.97116 14.5833 3.75001 14.5833" stroke="#CAA64A" stroke-width="1.25" stroke-linecap="round" stroke-linejoin="round"/>
<path d="M5.41667 5.83333V9.16646M8.75001 5.83333V9.16646" stroke="#CAA64A" stroke-width="1.25" stroke-linecap="round" stroke-linejoin="round"/>
</svg>
