<svg width="44" height="42" viewBox="0 0 44 42" fill="none" xmlns="http://www.w3.org/2000/svg">
<g clip-path="url(#clip0_4387_4265)">
<path fill-rule="evenodd" clip-rule="evenodd" d="M19.2199 0.104052C14.0154 0.610133 8.91082 3.21562 5.40136 7.15785C4.30406 8.38995 3.94933 8.87002 3.14409 10.2103C2.27796 11.6529 1.51411 13.2693 1.14223 14.4475C0.630241 16.0681 0.500173 16.5582 0.40144 17.2245C0.376018 17.3983 0.338771 17.5981 0.31867 17.6679C0.207521 18.0587 0.0277916 20.2373 0.0283828 21.1845C0.028974 22.1487 0.27492 24.7702 0.397893 25.1249C0.422133 25.1953 0.458788 25.3667 0.479481 25.5062C0.62965 26.5137 1.5957 29.1452 2.29924 30.4636C4.15152 33.9352 6.76588 36.7222 10.0678 38.7459C11.2491 39.4696 13.6423 40.6325 13.9509 40.6325C13.9917 40.6325 14.1472 40.691 14.2968 40.762C14.4464 40.8329 14.9099 40.9861 15.3267 41.1025C15.7435 41.219 16.1225 41.326 16.1692 41.3408C16.5966 41.4738 16.9939 41.5672 17.3132 41.6104C17.5231 41.6382 17.7708 41.6736 17.8642 41.6884C20.8859 42.1655 24.2257 42.0402 27.0162 41.3449C28.8644 40.8844 31.393 39.8243 33.1176 38.7867C35.9258 37.0964 38.9558 34.0056 40.4865 31.2688C41.2427 29.9167 41.4874 29.3829 42.0455 27.867C42.2814 27.2255 42.7497 25.5807 42.862 24.9978C43.1659 23.4204 43.251 20.1073 43.0317 18.4241C42.7497 16.2632 41.974 13.8297 40.8909 11.7055C39.7829 9.53336 38.5993 7.90397 36.941 6.26985C35.1454 4.50034 33.4794 3.30371 31.3445 2.25017C28.9134 1.05 26.6231 0.376012 23.9655 0.0786299C23.074 -0.0212856 20.3597 -0.00650522 19.2199 0.104052ZM21.0408 0.830657C21.0166 0.85667 20.6731 0.88564 20.2781 0.895691C17.1281 0.973731 13.2001 2.23361 10.322 4.08885C8.00271 5.58463 5.48413 8.08961 4.07408 10.3049C3.06191 11.8959 2.0669 14.1856 1.55668 16.1C0.172048 21.2932 1.03995 27.0405 3.87129 31.4267C5.25769 33.574 6.90659 35.3512 8.96639 36.9179C11.8314 39.0971 15.4591 40.5344 19.0927 40.9299C23.2466 41.3822 27.5454 40.6479 31.0625 38.8855C35.1366 36.8434 38.5798 33.3594 40.4741 29.3622C41.6376 26.9062 42.1987 24.5916 42.2873 21.8809C42.3695 19.36 42.0591 17.1807 41.2793 14.8064C39.6588 9.87154 35.7981 5.4179 31.1122 3.07669C28.3063 1.67491 25.6097 0.989103 22.3131 0.839525C21.6373 0.808782 21.0644 0.804643 21.0408 0.830657ZM19.6438 1.65718C15.4112 2.17863 12.0177 3.60819 8.88125 6.19181C5.65144 8.85228 3.27002 12.7117 2.3223 16.8207C1.64536 19.7584 1.77838 23.4299 2.66284 26.2068C3.40423 28.5321 4.69071 30.8786 6.206 32.6671C7.9631 34.7416 10.0329 36.4195 12.2015 37.5274C13.2421 38.0595 14.9146 38.6839 15.2989 38.6839C16.0604 38.6839 16.5612 37.923 16.2655 37.2159C16.1213 36.87 15.818 36.6986 14.8135 36.3941C13.4573 35.9838 11.7398 35.1052 10.2233 34.0458C9.55406 33.5787 7.86259 31.9594 7.21343 31.1654C5.21571 28.7201 4.03328 25.9816 3.54257 22.6631C3.51892 22.5023 3.47576 21.8372 3.44739 21.1845C3.38708 19.8122 3.55203 18.1066 3.88843 16.6084C4.38978 14.3778 5.49122 12.0513 7.02957 9.97618C7.70592 9.06334 9.64688 7.14248 10.6644 6.37863C12.8465 4.74037 15.3332 3.63243 18.161 3.03767C19.2476 2.80946 19.415 2.79704 21.5079 2.79645C24.1589 2.79527 25.1226 2.93716 27.2817 3.64425C32.5476 5.36883 36.5797 9.19223 38.6655 14.4393C39.8817 17.4982 40.1069 21.6486 39.2284 24.8027C38.9115 25.9402 38.85 26.1282 38.6502 26.5657C38.5331 26.8223 38.4078 27.1274 38.3723 27.2438C38.3362 27.3603 38.1926 27.6843 38.0525 27.9639C36.0128 32.0362 32.265 35.2631 28.2123 36.4378C27.329 36.6938 27.1173 36.8209 26.9346 37.2052C26.6775 37.748 26.9299 38.3138 27.5442 38.5704C27.9172 38.7264 28.4954 38.6176 29.5159 38.1997C31.9925 37.1857 33.9642 35.8472 35.8732 33.8832C37.1461 32.5736 37.505 32.1409 38.2659 30.9986C39.44 29.2356 40.5539 26.6715 40.9086 24.9133C41.1824 23.5558 41.209 23.3655 41.3041 22.0565C41.5968 18.0327 40.4942 13.961 38.1731 10.4976C34.9947 5.7549 30.3075 2.73615 24.6856 1.80971C23.5032 1.6152 20.6796 1.52947 19.6438 1.65718ZM20.6329 15.7163C19.9766 15.9581 19.629 16.197 19.263 16.6599C18.793 17.2552 18.5506 18.0421 18.6245 18.7339C18.6972 19.4126 19.065 20.1735 19.5196 20.5844C19.8223 20.8575 19.8554 20.9279 19.8536 21.2903C19.853 21.512 19.8164 21.9406 19.7726 22.2439C19.6993 22.7559 19.4516 25.0546 19.2577 27.0316C19.2116 27.4981 19.1406 28.2034 19.0992 28.5995C19.0579 28.9956 19.0531 29.371 19.0874 29.4337C19.1383 29.5253 19.6313 29.5466 21.5942 29.5419C22.9374 29.5389 24.0702 29.5035 24.111 29.4627C24.1778 29.3953 24.1009 28.5037 23.7101 24.8287C23.641 24.176 23.5245 23.032 23.4512 22.2865L23.3188 20.9302L23.7563 20.4768C24.3948 19.8158 24.5585 19.4061 24.5556 18.4731C24.5538 17.8352 24.5177 17.6342 24.3362 17.244C24.0749 16.6841 23.4861 16.1201 22.8671 15.8363C22.228 15.5437 21.2448 15.491 20.6329 15.7163ZM21.1561 16.829C20.6654 16.9443 20.0706 17.5142 19.9435 17.9913C19.7318 18.7859 20.2243 19.8217 20.9592 20.1262C21.2631 20.2521 21.2601 20.1865 21.0834 22.7098C21.0148 23.6888 20.9338 24.9186 20.903 25.443L20.8463 26.396H22.3054L22.2699 25.9089C22.1298 23.9774 21.9649 20.8729 21.9879 20.5997C22.0074 20.3774 22.0713 20.2391 22.1854 20.1764C22.9593 19.7496 23.33 19.1802 23.33 18.4182C23.33 17.341 22.2711 16.5671 21.1561 16.829ZM19.2057 32.1367C17.8589 32.7043 17.6951 34.2137 18.7942 35.9294C19.1625 36.5052 20.436 37.8443 21.1082 38.3628C21.6438 38.7767 21.6592 38.7725 22.5324 37.9921C23.7048 36.9433 24.4421 36.0033 24.9606 34.8954C25.1805 34.4247 25.2101 34.2805 25.1722 33.8619C25.1237 33.328 24.8967 32.8095 24.5881 32.5281C24.296 32.2621 23.7107 31.9889 23.4335 31.9889C22.9215 31.9889 22.3214 32.2414 21.9737 32.6026L21.635 32.9556L21.3175 32.657C21.1425 32.4926 20.89 32.2905 20.7558 32.2071C20.4029 31.9883 19.6408 31.9535 19.2057 32.1367Z" fill="#DCB461"/>
</g>
<defs>
<clipPath id="clip0_4387_4265">
<rect width="43.2486" height="42" fill="white"/>
</clipPath>
</defs>
</svg>
