<svg width="47" height="58" viewBox="0 0 47 58" fill="none" xmlns="http://www.w3.org/2000/svg">
<path d="M44.6667 55.3337H8.66667C4.98477 55.3337 2 52.3489 2 48.667M2 48.667V25.1566C2 17.1977 2 13.2182 4.01766 10.4228C4.6858 9.49717 5.49821 8.68476 6.42388 8.01662C9.21922 5.99897 13.1987 5.99897 21.1577 5.99897C23.7614 5.99897 26.9323 6.13617 29.5621 6.17174C31.9601 6.20417 33.1591 6.22039 35.3924 5.82571C37.6258 5.43102 37.8645 5.34027 38.3418 5.15877C40.3951 4.37803 42.3391 3.16377 44.6667 2V27.3337C44.6667 32.3037 44.6667 34.7888 43.8547 36.749C42.7721 39.3626 40.6956 41.4391 38.082 42.5217C36.1217 43.3337 33.6367 43.3337 28.6667 43.3337H7.33333C4.38781 43.3337 2 45.7215 2 48.667Z" stroke="#CAA64A" stroke-width="4" stroke-linecap="round" stroke-linejoin="round"/>
<path d="M39.333 42L39.333 55.3333" stroke="#CAA64A" stroke-width="4" stroke-linejoin="round"/>
<path d="M12.667 7.33325L12.667 17.9999" stroke="#CAA64A" stroke-width="4" stroke-linecap="round" stroke-linejoin="round"/>
</svg>
