<svg width="64" height="64" viewBox="0 0 64 64" fill="none" xmlns="http://www.w3.org/2000/svg">
<path d="M35.8267 18.6667L19.0911 35.4024M19.0911 35.4024L12.8727 41.6207C10.4685 44.0249 9.26639 45.2271 8.63319 46.7557C8 48.2844 8 49.9845 8 53.3846V56.0001H10.6155C14.0156 56.0001 15.7157 56.0001 17.2444 55.3669C18.773 54.7337 19.9751 53.5316 22.3794 51.1273L38.1043 35.4024M19.0911 35.4024H38.1043M38.1043 35.4024L45.3333 28.1734" stroke="#CAA64A" stroke-width="4" stroke-linecap="round" stroke-linejoin="round"/>
<path d="M51.2228 22.3698L55.5196 26.6667M51.2228 22.3698L53.5211 20.0715C54.3011 19.2915 54.6911 18.9015 54.9622 18.5208C56.3455 16.578 56.3455 13.9721 54.9622 12.0293C54.6911 11.6486 54.3011 11.2586 53.5211 10.4786C52.7411 9.69858 52.351 9.30852 51.9703 9.03745C50.0276 7.65418 47.4216 7.65418 45.4789 9.03745C45.0982 9.30853 44.7082 9.69854 43.9282 10.4786L41.6298 12.7769M51.2228 22.3698L41.6298 12.7769M37.333 8.48005L41.6298 12.7769" stroke="#CAA64A" stroke-width="4" stroke-linecap="round" stroke-linejoin="round"/>
</svg>
