<svg width="64" height="64" viewBox="0 0 64 64" fill="none" xmlns="http://www.w3.org/2000/svg">
<circle cx="20" cy="20" r="4" stroke="#CAA64A" stroke-width="4" stroke-linecap="round" stroke-linejoin="round"/>
<path d="M6.66699 32.0001C6.66699 20.0578 6.66699 14.0867 10.377 10.3767C14.087 6.66675 20.0581 6.66675 32.0003 6.66675C43.9426 6.66675 49.9137 6.66675 53.6237 10.3767C57.3337 14.0867 57.3337 20.0578 57.3337 32.0001C57.3337 43.9423 57.3337 49.9135 53.6237 53.6234C49.9137 57.3334 43.9426 57.3334 32.0003 57.3334C20.0581 57.3334 14.087 57.3334 10.377 53.6234C6.66699 49.9135 6.66699 43.9423 6.66699 32.0001Z" stroke="#CAA64A" stroke-width="4"/>
<path d="M13.334 56.0001C24.9939 42.0668 38.0648 23.6909 57.3272 36.1132" stroke="#CAA64A" stroke-width="4"/>
</svg>
